# Blender v2.90.1 OBJ File: ''
# www.blender.org
mtllib south_slope.mtl
o Cube_Cube.002
v -0.500000 0.500000 0.500000
v -0.500000 -0.500000 -0.500000
v -0.500000 -0.500000 0.500000
v 0.500000 -0.500000 0.500000
v 0.500000 0.500000 0.500000
v 0.500000 -0.500000 -0.500000
vt 0.625000 0.500000
vt 0.375000 0.750000
vt 0.375000 0.500000
vt 0.375000 0.250000
vt 0.625000 0.250000
vt 0.125000 0.750000
vt 0.125000 0.500000
vn -1.0000 -0.0000 -0.0000
vn -0.0000 0.0000 1.0000
vn 0.0000 0.7071 -0.7071
vn -0.0000 -1.0000 0.0000
vn 1.0000 0.0000 0.0000
usemtl None.001
s 1
f 1/1/1 2/2/1 3/3/1
f 4/4/2 5/5/2 1/1/2 3/3/2
f 1/1/3 5/5/3 6/6/3 2/2/3
f 4/7/4 3/3/4 2/2/4 6/6/4
f 4/4/5 6/6/5 5/5/5
