# Blender v2.90.1 OBJ File: ''
# www.blender.org
mtllib slope.mtl
o Cube_Cube.001
v -0.500000 -0.500000 0.500000
v -0.500000 -0.500000 -0.500000
v -0.500000 0.500000 -0.500000
v 0.500000 -0.500000 0.500000
v 0.500000 -0.500000 -0.500000
v 0.500000 0.500000 -0.500000
vt 0.625000 0.500000
vt 0.375000 0.750000
vt 0.375000 0.500000
vt 0.375000 0.250000
vt 0.625000 0.250000
vt 0.125000 0.750000
vt 0.125000 0.500000
vn 1.0000 0.0000 0.0000
vn 0.0000 0.0000 -1.0000
vn 0.0000 0.7071 0.7071
vn 0.0000 -1.0000 0.0000
vn -1.0000 0.0000 0.0000
usemtl None
s off
f 6/1/1 4/2/1 5/3/1
f 2/4/2 3/5/2 6/1/2 5/3/2
f 6/1/3 3/5/3 1/6/3 4/2/3
f 2/7/4 5/3/4 4/2/4 1/6/4
f 2/4/5 1/6/5 3/5/5
