v -4 2 -3
v -4 2 -2
v 5 2 -2
v 5 2 -3
v -4 0 -3
v 5 0 -3
v 5 0 -2
v -4 0 -2
v -4 0 -3
v -4 2 -3
v 5 2 -3
v 5 0 -3
v 5 0 -3
v 5 2 -3
v 5 2 -2
v 5 0 -2
v 5 0 -2
v 5 2 -2
v -4 2 -2
v -4 0 -2
v -4 0 -2
v -4 2 -2
v -4 2 -3
v -4 0 -3
v -3 9 -2
v -3 9 0
v -2 9 0
v -2 9 -2
v -3 0 -2
v -2 0 -2
v -2 0 0
v -3 0 0
v -3 0 -2
v -3 9 -2
v -2 9 -2
v -2 0 -2
v -2 0 -2
v -2 9 -2
v -2 9 0
v -2 0 0
v -2 0 0
v -2 9 0
v -3 9 0
v -3 0 0
v -3 0 0
v -3 9 0
v -3 9 -2
v -3 0 -2
v -3 4 -3
v -3 4 -2
v 4 4 -2
v 4 4 -3
v -3 2 -3
v 4 2 -3
v 4 2 -2
v -3 2 -2
v -3 2 -3
v -3 4 -3
v 4 4 -3
v 4 2 -3
v 4 2 -3
v 4 4 -3
v 4 4 -2
v 4 2 -2
v 4 2 -2
v 4 4 -2
v -3 4 -2
v -3 2 -2
v -3 2 -2
v -3 4 -2
v -3 4 -3
v -3 2 -3
v -4 5 -4
v -4 5 -3
v 5 5 -3
v 5 5 -4
v -4 3 -4
v 5 3 -4
v 5 3 -3
v -4 3 -3
v -4 3 -4
v -4 5 -4
v 5 5 -4
v 5 3 -4
v 5 3 -4
v 5 5 -4
v 5 5 -3
v 5 3 -3
v 5 3 -3
v 5 5 -3
v -4 5 -3
v -4 3 -3
v -4 3 -3
v -4 5 -3
v -4 5 -4
v -4 3 -4
v -4 7 -3
v -4 7 -2
v 5 7 -2
v 5 7 -3
v -4 5 -3
v 5 5 -3
v 5 5 -2
v -4 5 -2
v -4 5 -3
v -4 7 -3
v 5 7 -3
v 5 5 -3
v 5 5 -3
v 5 7 -3
v 5 7 -2
v 5 5 -2
v 5 5 -2
v 5 7 -2
v -4 7 -2
v -4 5 -2
v -4 5 -2
v -4 7 -2
v -4 7 -3
v -4 5 -3
v -5 9 -2
v -5 9 -1
v -3 9 -1
v -3 9 -2
v -5 7 -2
v -3 7 -2
v -3 7 -1
v -5 7 -1
v -5 7 -2
v -5 9 -2
v -3 9 -2
v -3 7 -2
v -3 7 -2
v -3 9 -2
v -3 9 -1
v -3 7 -1
v -3 7 -1
v -3 9 -1
v -5 9 -1
v -5 7 -1
v -5 7 -1
v -5 9 -1
v -5 9 -2
v -5 7 -2
v -3 2 -4
v -3 2 -3
v -2 2 -3
v -2 2 -4
v -3 0 -4
v -2 0 -4
v -2 0 -3
v -3 0 -3
v -3 0 -4
v -3 2 -4
v -2 2 -4
v -2 0 -4
v -2 0 -4
v -2 2 -4
v -2 2 -3
v -2 0 -3
v -2 0 -3
v -2 2 -3
v -3 2 -3
v -3 0 -3
v -3 0 -3
v -3 2 -3
v -3 2 -4
v -3 0 -4
v -3 6 -3
v -3 6 -2
v -2 6 -2
v -2 6 -3
v -3 4 -3
v -2 4 -3
v -2 4 -2
v -3 4 -2
v -3 4 -3
v -3 6 -3
v -2 6 -3
v -2 4 -3
v -2 4 -3
v -2 6 -3
v -2 6 -2
v -2 4 -2
v -2 4 -2
v -2 6 -2
v -3 6 -2
v -3 4 -2
v -3 4 -2
v -3 6 -2
v -3 6 -3
v -3 4 -3
v -5 7 -3
v -5 7 -2
v -4 7 -2
v -4 7 -3
v -5 6 -3
v -4 6 -3
v -4 6 -2
v -5 6 -2
v -5 6 -3
v -5 7 -3
v -4 7 -3
v -4 6 -3
v -4 6 -3
v -4 7 -3
v -4 7 -2
v -4 6 -2
v -4 6 -2
v -4 7 -2
v -5 7 -2
v -5 6 -2
v -5 6 -2
v -5 7 -2
v -5 7 -3
v -5 6 -3
v -2 9 -2
v -2 9 -1
v 6 9 -1
v 6 9 -2
v -2 7 -2
v 6 7 -2
v 6 7 -1
v -2 7 -1
v -2 7 -2
v -2 9 -2
v 6 9 -2
v 6 7 -2
v 6 7 -2
v 6 9 -2
v 6 9 -1
v 6 7 -1
v 6 7 -1
v 6 9 -1
v -2 9 -1
v -2 7 -1
v -2 7 -1
v -2 9 -1
v -2 9 -2
v -2 7 -2
v -2 5 -2
v -2 5 3
v 4 5 3
v 4 5 -2
v -2 4 -2
v 4 4 -2
v 4 4 3
v -2 4 3
v -2 4 -2
v -2 5 -2
v 4 5 -2
v 4 4 -2
v 4 4 -2
v 4 5 -2
v 4 5 3
v 4 4 3
v 4 4 3
v 4 5 3
v -2 5 3
v -2 4 3
v -2 4 3
v -2 5 3
v -2 5 -2
v -2 4 -2
v -3 2 1
v -3 2 5
v -2 2 5
v -2 2 1
v -3 0 1
v -2 0 1
v -2 0 5
v -3 0 5
v -3 0 1
v -3 2 1
v -2 2 1
v -2 0 1
v -2 0 1
v -2 2 1
v -2 2 5
v -2 0 5
v -2 0 5
v -2 2 5
v -3 2 5
v -3 0 5
v -3 0 5
v -3 2 5
v -3 2 1
v -3 0 1
v -3 4 3
v -3 4 4
v 4 4 4
v 4 4 3
v -3 2 3
v 4 2 3
v 4 2 4
v -3 2 4
v -3 2 3
v -3 4 3
v 4 4 3
v 4 2 3
v 4 2 3
v 4 4 3
v 4 4 4
v 4 2 4
v 4 2 4
v 4 4 4
v -3 4 4
v -3 2 4
v -3 2 4
v -3 4 4
v -3 4 3
v -3 2 3
v -3 3 0
v -3 3 4
v -2 3 4
v -2 3 0
v -3 2 0
v -2 2 0
v -2 2 4
v -3 2 4
v -3 2 0
v -3 3 0
v -2 3 0
v -2 2 0
v -2 2 0
v -2 3 0
v -2 3 4
v -2 2 4
v -2 2 4
v -2 3 4
v -3 3 4
v -3 2 4
v -3 2 4
v -3 3 4
v -3 3 0
v -3 2 0
v -3 7 0
v -3 7 3
v -2 7 3
v -2 7 0
v -3 3 0
v -2 3 0
v -2 3 3
v -3 3 3
v -3 3 0
v -3 7 0
v -2 7 0
v -2 3 0
v -2 3 0
v -2 7 0
v -2 7 3
v -2 3 3
v -2 3 3
v -2 7 3
v -3 7 3
v -3 3 3
v -3 3 3
v -3 7 3
v -3 7 0
v -3 3 0
v -2 2 3
v -2 2 4
v -1 2 4
v -1 2 3
v -2 0 3
v -1 0 3
v -1 0 4
v -2 0 4
v -2 0 3
v -2 2 3
v -1 2 3
v -1 0 3
v -1 0 3
v -1 2 3
v -1 2 4
v -1 0 4
v -1 0 4
v -1 2 4
v -2 2 4
v -2 0 4
v -2 0 4
v -2 2 4
v -2 2 3
v -2 0 3
v -1 2 3
v -1 2 4
v 5 2 4
v 5 2 3
v -1 1 3
v 5 1 3
v 5 1 4
v -1 1 4
v -1 1 3
v -1 2 3
v 5 2 3
v 5 1 3
v 5 1 3
v 5 2 3
v 5 2 4
v 5 1 4
v 5 1 4
v 5 2 4
v -1 2 4
v -1 1 4
v -1 1 4
v -1 2 4
v -1 2 3
v -1 1 3
v -4 2 3
v -4 2 4
v -3 2 4
v -3 2 3
v -4 0 3
v -3 0 3
v -3 0 4
v -4 0 4
v -4 0 3
v -4 2 3
v -3 2 3
v -3 0 3
v -3 0 3
v -3 2 3
v -3 2 4
v -3 0 4
v -3 0 4
v -3 2 4
v -4 2 4
v -4 0 4
v -4 0 4
v -4 2 4
v -4 2 3
v -4 0 3
v -4 5 4
v -4 5 5
v 5 5 5
v 5 5 4
v -4 3 4
v 5 3 4
v 5 3 5
v -4 3 5
v -4 3 4
v -4 5 4
v 5 5 4
v 5 3 4
v 5 3 4
v 5 5 4
v 5 5 5
v 5 3 5
v 5 3 5
v 5 5 5
v -4 5 5
v -4 3 5
v -4 3 5
v -4 5 5
v -4 5 4
v -4 3 4
v -5 9 2
v -5 9 3
v 6 9 3
v 6 9 2
v -5 7 2
v 6 7 2
v 6 7 3
v -5 7 3
v -5 7 2
v -5 9 2
v 6 9 2
v 6 7 2
v 6 7 2
v 6 9 2
v 6 9 3
v 6 7 3
v 6 7 3
v 6 9 3
v -5 9 3
v -5 7 3
v -5 7 3
v -5 9 3
v -5 9 2
v -5 7 2
v -3 11 1
v -3 11 2
v -2 11 2
v -2 11 1
v -3 7 1
v -2 7 1
v -2 7 2
v -3 7 2
v -3 7 1
v -3 11 1
v -2 11 1
v -2 7 1
v -2 7 1
v -2 11 1
v -2 11 2
v -2 7 2
v -2 7 2
v -2 11 2
v -3 11 2
v -3 7 2
v -3 7 2
v -3 11 2
v -3 11 1
v -3 7 1
v -5 7 3
v -5 7 4
v 6 7 4
v 6 7 3
v -5 6 3
v 6 6 3
v 6 6 4
v -5 6 4
v -5 6 3
v -5 7 3
v 6 7 3
v 6 6 3
v 6 6 3
v 6 7 3
v 6 7 4
v 6 6 4
v 6 6 4
v 6 7 4
v -5 7 4
v -5 6 4
v -5 6 4
v -5 7 4
v -5 7 3
v -5 6 3
v -4 6 3
v -4 6 4
v 5 6 4
v 5 6 3
v -4 5 3
v 5 5 3
v 5 5 4
v -4 5 4
v -4 5 3
v -4 6 3
v 5 6 3
v 5 5 3
v 5 5 3
v 5 6 3
v 5 6 4
v 5 5 4
v 5 5 4
v 5 6 4
v -4 6 4
v -4 5 4
v -4 5 4
v -4 6 4
v -4 6 3
v -4 5 3
v -3 5 3
v -3 5 4
v -2 5 4
v -2 5 3
v -3 4 3
v -2 4 3
v -2 4 4
v -3 4 4
v -3 4 3
v -3 5 3
v -2 5 3
v -2 4 3
v -2 4 3
v -2 5 3
v -2 5 4
v -2 4 4
v -2 4 4
v -2 5 4
v -3 5 4
v -3 4 4
v -3 4 4
v -3 5 4
v -3 5 3
v -3 4 3
v 3 1 -2
v 3 1 5
v 4 1 5
v 4 1 -2
v 3 0 -2
v 4 0 -2
v 4 0 5
v 3 0 5
v 3 0 -2
v 3 1 -2
v 4 1 -2
v 4 0 -2
v 4 0 -2
v 4 1 -2
v 4 1 5
v 4 0 5
v 4 0 5
v 4 1 5
v 3 1 5
v 3 0 5
v 3 0 5
v 3 1 5
v 3 1 -2
v 3 0 -2
v 0 1 3
v 0 1 4
v 3 1 4
v 3 1 3
v 0 0 3
v 3 0 3
v 3 0 4
v 0 0 4
v 0 0 3
v 0 1 3
v 3 1 3
v 3 0 3
v 3 0 3
v 3 1 3
v 3 1 4
v 3 0 4
v 3 0 4
v 3 1 4
v 0 1 4
v 0 0 4
v 0 0 4
v 0 1 4
v 0 1 3
v 0 0 3
v 3 4 -2
v 3 4 3
v 4 4 3
v 4 4 -2
v 3 1 -2
v 4 1 -2
v 4 1 3
v 3 1 3
v 3 1 -2
v 3 4 -2
v 4 4 -2
v 4 1 -2
v 4 1 -2
v 4 4 -2
v 4 4 3
v 4 1 3
v 4 1 3
v 4 4 3
v 3 4 3
v 3 1 3
v 3 1 3
v 3 4 3
v 3 4 -2
v 3 1 -2
v 3 7 -2
v 3 7 3
v 4 7 3
v 4 7 -2
v 3 5 -2
v 4 5 -2
v 4 5 3
v 3 5 3
v 3 5 -2
v 3 7 -2
v 4 7 -2
v 4 5 -2
v 4 5 -2
v 4 7 -2
v 4 7 3
v 4 5 3
v 4 5 3
v 4 7 3
v 3 7 3
v 3 5 3
v 3 5 3
v 3 7 3
v 3 7 -2
v 3 5 -2
v 3 5 3
v 3 5 4
v 4 5 4
v 4 5 3
v 3 4 3
v 4 4 3
v 4 4 4
v 3 4 4
v 3 4 3
v 3 5 3
v 4 5 3
v 4 4 3
v 4 4 3
v 4 5 3
v 4 5 4
v 4 4 4
v 4 4 4
v 4 5 4
v 3 5 4
v 3 4 4
v 3 4 4
v 3 5 4
v 3 5 3
v 3 4 3
v 3 11 1
v 3 11 2
v 4 11 2
v 4 11 1
v 3 7 1
v 4 7 1
v 4 7 2
v 3 7 2
v 3 7 1
v 3 11 1
v 4 11 1
v 4 7 1
v 4 7 1
v 4 11 1
v 4 11 2
v 4 7 2
v 4 7 2
v 4 11 2
v 3 11 2
v 3 7 2
v 3 7 2
v 3 11 2
v 3 11 1
v 3 7 1
v 4 1 3
v 4 1 4
v 5 1 4
v 5 1 3
v 4 0 3
v 5 0 3
v 5 0 4
v 4 0 4
v 4 0 3
v 4 1 3
v 5 1 3
v 5 0 3
v 5 0 3
v 5 1 3
v 5 1 4
v 5 0 4
v 5 0 4
v 5 1 4
v 4 1 4
v 4 0 4
v 4 0 4
v 4 1 4
v 4 1 3
v 4 0 3
v 3 2 4
v 3 2 5
v 4 2 5
v 4 2 4
v 3 1 4
v 4 1 4
v 4 1 5
v 3 1 5
v 3 1 4
v 3 2 4
v 4 2 4
v 4 1 4
v 4 1 4
v 4 2 4
v 4 2 5
v 4 1 5
v 4 1 5
v 4 2 5
v 3 2 5
v 3 1 5
v 3 1 5
v 3 2 5
v 3 2 4
v 3 1 4
v 5 7 -3
v 5 7 -2
v 6 7 -2
v 6 7 -3
v 5 6 -3
v 6 6 -3
v 6 6 -2
v 5 6 -2
v 5 6 -3
v 5 7 -3
v 6 7 -3
v 6 6 -3
v 6 6 -3
v 6 7 -3
v 6 7 -2
v 6 6 -2
v 6 6 -2
v 6 7 -2
v 5 7 -2
v 5 6 -2
v 5 6 -2
v 5 7 -2
v 5 7 -3
v 5 6 -3
v 3 5 -3
v 3 5 -2
v 4 5 -2
v 4 5 -3
v 3 4 -3
v 4 4 -3
v 4 4 -2
v 3 4 -2
v 3 4 -3
v 3 5 -3
v 4 5 -3
v 4 4 -3
v 4 4 -3
v 4 5 -3
v 4 5 -2
v 4 4 -2
v 4 4 -2
v 4 5 -2
v 3 5 -2
v 3 4 -2
v 3 4 -2
v 3 5 -2
v 3 5 -3
v 3 4 -3
v 3 11 -1
v 3 11 0
v 4 11 0
v 4 11 -1
v 3 7 -1
v 4 7 -1
v 4 7 0
v 3 7 0
v 3 7 -1
v 3 11 -1
v 4 11 -1
v 4 7 -1
v 4 7 -1
v 4 11 -1
v 4 11 0
v 4 7 0
v 4 7 0
v 4 11 0
v 3 11 0
v 3 7 0
v 3 7 0
v 3 11 0
v 3 11 -1
v 3 7 -1
v 3 2 -4
v 3 2 -3
v 4 2 -3
v 4 2 -4
v 3 0 -4
v 4 0 -4
v 4 0 -3
v 3 0 -3
v 3 0 -4
v 3 2 -4
v 4 2 -4
v 4 0 -4
v 4 0 -4
v 4 2 -4
v 4 2 -3
v 4 0 -3
v 4 0 -3
v 4 2 -3
v 3 2 -3
v 3 0 -3
v 3 0 -3
v 3 2 -3
v 3 2 -4
v 3 0 -4
v -7 12 0
v -7 12 1
v 8 12 1
v 8 12 0
v -7 11 0
v 8 11 0
v 8 11 1
v -7 11 1
v -7 11 0
v -7 12 0
v 8 12 0
v 8 11 0
v 8 11 0
v 8 12 0
v 8 12 1
v 8 11 1
v 8 11 1
v 8 12 1
v -7 12 1
v -7 11 1
v -7 11 1
v -7 12 1
v -7 12 0
v -7 11 0
v -3 11 0
v -3 11 1
v -2 11 1
v -2 11 0
v -3 8 0
v -2 8 0
v -2 8 1
v -3 8 1
v -3 8 0
v -3 11 0
v -2 11 0
v -2 8 0
v -2 8 0
v -2 11 0
v -2 11 1
v -2 8 1
v -2 8 1
v -2 11 1
v -3 11 1
v -3 8 1
v -3 8 1
v -3 11 1
v -3 11 0
v -3 8 0
v -6 11 1
v -6 11 2
v -3 11 2
v -3 11 1
v -6 9 1
v -3 9 1
v -3 9 2
v -6 9 2
v -6 9 1
v -6 11 1
v -3 11 1
v -3 9 1
v -3 9 1
v -3 11 1
v -3 11 2
v -3 9 2
v -3 9 2
v -3 11 2
v -6 11 2
v -6 9 2
v -6 9 2
v -6 11 2
v -6 11 1
v -6 9 1
v -6 9 2
v -6 9 3
v -5 9 3
v -5 9 2
v -6 8 2
v -5 8 2
v -5 8 3
v -6 8 3
v -6 8 2
v -6 9 2
v -5 9 2
v -5 8 2
v -5 8 2
v -5 9 2
v -5 9 3
v -5 8 3
v -5 8 3
v -5 9 3
v -6 9 3
v -6 8 3
v -6 8 3
v -6 9 3
v -6 9 2
v -6 8 2
v -2 11 1
v -2 11 2
v 3 11 2
v 3 11 1
v -2 9 1
v 3 9 1
v 3 9 2
v -2 9 2
v -2 9 1
v -2 11 1
v 3 11 1
v 3 9 1
v 3 9 1
v 3 11 1
v 3 11 2
v 3 9 2
v 3 9 2
v 3 11 2
v -2 11 2
v -2 9 2
v -2 9 2
v -2 11 2
v -2 11 1
v -2 9 1
v -6 11 -1
v -6 11 0
v 3 11 0
v 3 11 -1
v -6 9 -1
v 3 9 -1
v 3 9 0
v -6 9 0
v -6 9 -1
v -6 11 -1
v 3 11 -1
v 3 9 -1
v 3 9 -1
v 3 11 -1
v 3 11 0
v 3 9 0
v 3 9 0
v 3 11 0
v -6 11 0
v -6 9 0
v -6 9 0
v -6 11 0
v -6 11 -1
v -6 9 -1
v -6 9 -2
v -6 9 -1
v -5 9 -1
v -5 9 -2
v -6 8 -2
v -5 8 -2
v -5 8 -1
v -6 8 -1
v -6 8 -2
v -6 9 -2
v -5 9 -2
v -5 8 -2
v -5 8 -2
v -5 9 -2
v -5 9 -1
v -5 8 -1
v -5 8 -1
v -5 9 -1
v -6 9 -1
v -6 8 -1
v -6 8 -1
v -6 9 -1
v -6 9 -2
v -6 8 -2
v 4 11 -1
v 4 11 0
v 7 11 0
v 7 11 -1
v 4 9 -1
v 7 9 -1
v 7 9 0
v 4 9 0
v 4 9 -1
v 4 11 -1
v 7 11 -1
v 7 9 -1
v 7 9 -1
v 7 11 -1
v 7 11 0
v 7 9 0
v 7 9 0
v 7 11 0
v 4 11 0
v 4 9 0
v 4 9 0
v 4 11 0
v 4 11 -1
v 4 9 -1
v 6 9 -2
v 6 9 -1
v 7 9 -1
v 7 9 -2
v 6 8 -2
v 7 8 -2
v 7 8 -1
v 6 8 -1
v 6 8 -2
v 6 9 -2
v 7 9 -2
v 7 8 -2
v 7 8 -2
v 7 9 -2
v 7 9 -1
v 7 8 -1
v 7 8 -1
v 7 9 -1
v 6 9 -1
v 6 8 -1
v 6 8 -1
v 6 9 -1
v 6 9 -2
v 6 8 -2
v 4 11 1
v 4 11 2
v 7 11 2
v 7 11 1
v 4 9 1
v 7 9 1
v 7 9 2
v 4 9 2
v 4 9 1
v 4 11 1
v 7 11 1
v 7 9 1
v 7 9 1
v 7 11 1
v 7 11 2
v 7 9 2
v 7 9 2
v 7 11 2
v 4 11 2
v 4 9 2
v 4 9 2
v 4 11 2
v 4 11 1
v 4 9 1
v 6 9 2
v 6 9 3
v 7 9 3
v 7 9 2
v 6 8 2
v 7 8 2
v 7 8 3
v 6 8 3
v 6 8 2
v 6 9 2
v 7 9 2
v 7 8 2
v 7 8 2
v 7 9 2
v 7 9 3
v 7 8 3
v 7 8 3
v 7 9 3
v 6 9 3
v 6 8 3
v 6 8 3
v 6 9 3
v 6 9 2
v 6 8 2
v 3 11 0
v 3 11 1
v 4 11 1
v 4 11 0
v 3 8 0
v 4 8 0
v 4 8 1
v 3 8 1
v 3 8 0
v 3 11 0
v 4 11 0
v 4 8 0
v 4 8 0
v 4 11 0
v 4 11 1
v 4 8 1
v 4 8 1
v 4 11 1
v 3 11 1
v 3 8 1
v 3 8 1
v 3 11 1
v 3 11 0
v 3 8 0
vt 0 0 0
vt 0 1 0
vt 1 1 0
vt 1 0 0
vt 0 0 0
vt 0 1 0
vt 1 1 0
vt 1 0 0
vt 0 0 0
vt 0 1 0
vt 1 1 0
vt 1 0 0
vt 0 0 0
vt 0 1 0
vt 1 1 0
vt 1 0 0
vt 0 0 0
vt 0 1 0
vt 1 1 0
vt 1 0 0
vt 0 0 0
vt 0 1 0
vt 1 1 0
vt 1 0 0
vt 0 0 0
vt 0 1 0
vt 1 1 0
vt 1 0 0
vt 0 0 0
vt 0 1 0
vt 1 1 0
vt 1 0 0
vt 0 0 0
vt 0 1 0
vt 1 1 0
vt 1 0 0
vt 0 0 0
vt 0 1 0
vt 1 1 0
vt 1 0 0
vt 0 0 0
vt 0 1 0
vt 1 1 0
vt 1 0 0
vt 0 0 0
vt 0 1 0
vt 1 1 0
vt 1 0 0
vt 0 0 0
vt 0 1 0
vt 1 1 0
vt 1 0 0
vt 0 0 0
vt 0 1 0
vt 1 1 0
vt 1 0 0
vt 0 0 0
vt 0 1 0
vt 1 1 0
vt 1 0 0
vt 0 0 0
vt 0 1 0
vt 1 1 0
vt 1 0 0
vt 0 0 0
vt 0 1 0
vt 1 1 0
vt 1 0 0
vt 0 0 0
vt 0 1 0
vt 1 1 0
vt 1 0 0
vt 0 0 0
vt 0 1 0
vt 1 1 0
vt 1 0 0
vt 0 0 0
vt 0 1 0
vt 1 1 0
vt 1 0 0
vt 0 0 0
vt 0 1 0
vt 1 1 0
vt 1 0 0
vt 0 0 0
vt 0 1 0
vt 1 1 0
vt 1 0 0
vt 0 0 0
vt 0 1 0
vt 1 1 0
vt 1 0 0
vt 0 0 0
vt 0 1 0
vt 1 1 0
vt 1 0 0
vt 0 0 0
vt 0 1 0
vt 1 1 0
vt 1 0 0
vt 0 0 0
vt 0 1 0
vt 1 1 0
vt 1 0 0
vt 0 0 0
vt 0 1 0
vt 1 1 0
vt 1 0 0
vt 0 0 0
vt 0 1 0
vt 1 1 0
vt 1 0 0
vt 0 0 0
vt 0 1 0
vt 1 1 0
vt 1 0 0
vt 0 0 0
vt 0 1 0
vt 1 1 0
vt 1 0 0
vt 0 0 0
vt 0 1 0
vt 1 1 0
vt 1 0 0
vt 0 0 0
vt 0 1 0
vt 1 1 0
vt 1 0 0
vt 0 0 0
vt 0 1 0
vt 1 1 0
vt 1 0 0
vt 0 0 0
vt 0 1 0
vt 1 1 0
vt 1 0 0
vt 0 0 0
vt 0 1 0
vt 1 1 0
vt 1 0 0
vt 0 0 0
vt 0 1 0
vt 1 1 0
vt 1 0 0
vt 0 0 0
vt 0 1 0
vt 1 1 0
vt 1 0 0
vt 0 0 0
vt 0 1 0
vt 1 1 0
vt 1 0 0
vt 0 0 0
vt 0 1 0
vt 1 1 0
vt 1 0 0
vt 0 0 0
vt 0 1 0
vt 1 1 0
vt 1 0 0
vt 0 0 0
vt 0 1 0
vt 1 1 0
vt 1 0 0
vt 0 0 0
vt 0 1 0
vt 1 1 0
vt 1 0 0
vt 0 0 0
vt 0 1 0
vt 1 1 0
vt 1 0 0
vt 0 0 0
vt 0 1 0
vt 1 1 0
vt 1 0 0
vt 0 0 0
vt 0 1 0
vt 1 1 0
vt 1 0 0
vt 0 0 0
vt 0 1 0
vt 1 1 0
vt 1 0 0
vt 0 0 0
vt 0 1 0
vt 1 1 0
vt 1 0 0
vt 0 0 0
vt 0 1 0
vt 1 1 0
vt 1 0 0
vt 0 0 0
vt 0 1 0
vt 1 1 0
vt 1 0 0
vt 0 0 0
vt 0 1 0
vt 1 1 0
vt 1 0 0
vt 0 0 0
vt 0 1 0
vt 1 1 0
vt 1 0 0
vt 0 0 0
vt 0 1 0
vt 1 1 0
vt 1 0 0
vt 0 0 0
vt 0 1 0
vt 1 1 0
vt 1 0 0
vt 0 0 0
vt 0 1 0
vt 1 1 0
vt 1 0 0
vt 0 0 0
vt 0 1 0
vt 1 1 0
vt 1 0 0
vt 0 0 0
vt 0 1 0
vt 1 1 0
vt 1 0 0
vt 0 0 0
vt 0 1 0
vt 1 1 0
vt 1 0 0
vt 0 0 0
vt 0 1 0
vt 1 1 0
vt 1 0 0
vt 0 0 0
vt 0 1 0
vt 1 1 0
vt 1 0 0
vt 0 0 0
vt 0 1 0
vt 1 1 0
vt 1 0 0
vt 0 0 0
vt 0 1 0
vt 1 1 0
vt 1 0 0
vt 0 0 0
vt 0 1 0
vt 1 1 0
vt 1 0 0
vt 0 0 0
vt 0 1 0
vt 1 1 0
vt 1 0 0
vt 0 0 0
vt 0 1 0
vt 1 1 0
vt 1 0 0
vt 0 0 0
vt 0 1 0
vt 1 1 0
vt 1 0 0
vt 0 0 0
vt 0 1 0
vt 1 1 0
vt 1 0 0
vt 0 0 0
vt 0 1 0
vt 1 1 0
vt 1 0 0
vt 0 0 0
vt 0 1 0
vt 1 1 0
vt 1 0 0
vt 0 0 0
vt 0 1 0
vt 1 1 0
vt 1 0 0
vt 0 0 0
vt 0 1 0
vt 1 1 0
vt 1 0 0
vt 0 0 0
vt 0 1 0
vt 1 1 0
vt 1 0 0
vt 0 0 0
vt 0 1 0
vt 1 1 0
vt 1 0 0
vt 0 0 0
vt 0 1 0
vt 1 1 0
vt 1 0 0
vt 0 0 0
vt 0 1 0
vt 1 1 0
vt 1 0 0
vt 0 0 0
vt 0 1 0
vt 1 1 0
vt 1 0 0
vt 0 0 0
vt 0 1 0
vt 1 1 0
vt 1 0 0
vt 0 0 0
vt 0 1 0
vt 1 1 0
vt 1 0 0
vt 0 0 0
vt 0 1 0
vt 1 1 0
vt 1 0 0
vt 0 0 0
vt 0 1 0
vt 1 1 0
vt 1 0 0
vt 0 0 0
vt 0 1 0
vt 1 1 0
vt 1 0 0
vt 0 0 0
vt 0 1 0
vt 1 1 0
vt 1 0 0
vt 0 0 0
vt 0 1 0
vt 1 1 0
vt 1 0 0
vt 0 0 0
vt 0 1 0
vt 1 1 0
vt 1 0 0
vt 0 0 0
vt 0 1 0
vt 1 1 0
vt 1 0 0
vt 0 0 0
vt 0 1 0
vt 1 1 0
vt 1 0 0
vt 0 0 0
vt 0 1 0
vt 1 1 0
vt 1 0 0
vt 0 0 0
vt 0 1 0
vt 1 1 0
vt 1 0 0
vt 0 0 0
vt 0 1 0
vt 1 1 0
vt 1 0 0
vt 0 0 0
vt 0 1 0
vt 1 1 0
vt 1 0 0
vt 0 0 0
vt 0 1 0
vt 1 1 0
vt 1 0 0
vt 0 0 0
vt 0 1 0
vt 1 1 0
vt 1 0 0
vt 0 0 0
vt 0 1 0
vt 1 1 0
vt 1 0 0
vt 0 0 0
vt 0 1 0
vt 1 1 0
vt 1 0 0
vt 0 0 0
vt 0 1 0
vt 1 1 0
vt 1 0 0
vt 0 0 0
vt 0 1 0
vt 1 1 0
vt 1 0 0
vt 0 0 0
vt 0 1 0
vt 1 1 0
vt 1 0 0
vt 0 0 0
vt 0 1 0
vt 1 1 0
vt 1 0 0
vt 0 0 0
vt 0 1 0
vt 1 1 0
vt 1 0 0
vt 0 0 0
vt 0 1 0
vt 1 1 0
vt 1 0 0
vt 0 0 0
vt 0 1 0
vt 1 1 0
vt 1 0 0
vt 0 0 0
vt 0 1 0
vt 1 1 0
vt 1 0 0
vt 0 0 0
vt 0 1 0
vt 1 1 0
vt 1 0 0
vt 0 0 0
vt 0 1 0
vt 1 1 0
vt 1 0 0
vt 0 0 0
vt 0 1 0
vt 1 1 0
vt 1 0 0
vt 0 0 0
vt 0 1 0
vt 1 1 0
vt 1 0 0
vt 0 0 0
vt 0 1 0
vt 1 1 0
vt 1 0 0
vt 0 0 0
vt 0 1 0
vt 1 1 0
vt 1 0 0
vt 0 0 0
vt 0 1 0
vt 1 1 0
vt 1 0 0
vt 0 0 0
vt 0 1 0
vt 1 1 0
vt 1 0 0
vt 0 0 0
vt 0 1 0
vt 1 1 0
vt 1 0 0
vt 0 0 0
vt 0 1 0
vt 1 1 0
vt 1 0 0
vt 0 0 0
vt 0 1 0
vt 1 1 0
vt 1 0 0
vt 0 0 0
vt 0 1 0
vt 1 1 0
vt 1 0 0
vt 0 0 0
vt 0 1 0
vt 1 1 0
vt 1 0 0
vt 0 0 0
vt 0 1 0
vt 1 1 0
vt 1 0 0
vt 0 0 0
vt 0 1 0
vt 1 1 0
vt 1 0 0
vt 0 0 0
vt 0 1 0
vt 1 1 0
vt 1 0 0
vt 0 0 0
vt 0 1 0
vt 1 1 0
vt 1 0 0
vt 0 0 0
vt 0 1 0
vt 1 1 0
vt 1 0 0
vt 0 0 0
vt 0 1 0
vt 1 1 0
vt 1 0 0
vt 0 0 0
vt 0 1 0
vt 1 1 0
vt 1 0 0
vt 0 0 0
vt 0 1 0
vt 1 1 0
vt 1 0 0
vt 0 0 0
vt 0 1 0
vt 1 1 0
vt 1 0 0
vt 0 0 0
vt 0 1 0
vt 1 1 0
vt 1 0 0
vt 0 0 0
vt 0 1 0
vt 1 1 0
vt 1 0 0
vt 0 0 0
vt 0 1 0
vt 1 1 0
vt 1 0 0
vt 0 0 0
vt 0 1 0
vt 1 1 0
vt 1 0 0
vt 0 0 0
vt 0 1 0
vt 1 1 0
vt 1 0 0
vt 0 0 0
vt 0 1 0
vt 1 1 0
vt 1 0 0
vt 0 0 0
vt 0 1 0
vt 1 1 0
vt 1 0 0
vt 0 0 0
vt 0 1 0
vt 1 1 0
vt 1 0 0
vt 0 0 0
vt 0 1 0
vt 1 1 0
vt 1 0 0
vt 0 0 0
vt 0 1 0
vt 1 1 0
vt 1 0 0
vt 0 0 0
vt 0 1 0
vt 1 1 0
vt 1 0 0
vt 0 0 0
vt 0 1 0
vt 1 1 0
vt 1 0 0
vt 0 0 0
vt 0 1 0
vt 1 1 0
vt 1 0 0
vt 0 0 0
vt 0 1 0
vt 1 1 0
vt 1 0 0
vt 0 0 0
vt 0 1 0
vt 1 1 0
vt 1 0 0
vt 0 0 0
vt 0 1 0
vt 1 1 0
vt 1 0 0
vt 0 0 0
vt 0 1 0
vt 1 1 0
vt 1 0 0
vt 0 0 0
vt 0 1 0
vt 1 1 0
vt 1 0 0
vt 0 0 0
vt 0 1 0
vt 1 1 0
vt 1 0 0
vt 0 0 0
vt 0 1 0
vt 1 1 0
vt 1 0 0
vt 0 0 0
vt 0 1 0
vt 1 1 0
vt 1 0 0
vt 0 0 0
vt 0 1 0
vt 1 1 0
vt 1 0 0
vt 0 0 0
vt 0 1 0
vt 1 1 0
vt 1 0 0
vt 0 0 0
vt 0 1 0
vt 1 1 0
vt 1 0 0
vt 0 0 0
vt 0 1 0
vt 1 1 0
vt 1 0 0
vt 0 0 0
vt 0 1 0
vt 1 1 0
vt 1 0 0
vt 0 0 0
vt 0 1 0
vt 1 1 0
vt 1 0 0
vt 0 0 0
vt 0 1 0
vt 1 1 0
vt 1 0 0
vt 0 0 0
vt 0 1 0
vt 1 1 0
vt 1 0 0
vt 0 0 0
vt 0 1 0
vt 1 1 0
vt 1 0 0
vt 0 0 0
vt 0 1 0
vt 1 1 0
vt 1 0 0
vt 0 0 0
vt 0 1 0
vt 1 1 0
vt 1 0 0
vt 0 0 0
vt 0 1 0
vt 1 1 0
vt 1 0 0
vt 0 0 0
vt 0 1 0
vt 1 1 0
vt 1 0 0
vt 0 0 0
vt 0 1 0
vt 1 1 0
vt 1 0 0
vt 0 0 0
vt 0 1 0
vt 1 1 0
vt 1 0 0
vt 0 0 0
vt 0 1 0
vt 1 1 0
vt 1 0 0
vt 0 0 0
vt 0 1 0
vt 1 1 0
vt 1 0 0
vt 0 0 0
vt 0 1 0
vt 1 1 0
vt 1 0 0
vt 0 0 0
vt 0 1 0
vt 1 1 0
vt 1 0 0
vt 0 0 0
vt 0 1 0
vt 1 1 0
vt 1 0 0
vt 0 0 0
vt 0 1 0
vt 1 1 0
vt 1 0 0
vt 0 0 0
vt 0 1 0
vt 1 1 0
vt 1 0 0
vt 0 0 0
vt 0 1 0
vt 1 1 0
vt 1 0 0
vt 0 0 0
vt 0 1 0
vt 1 1 0
vt 1 0 0
vt 0 0 0
vt 0 1 0
vt 1 1 0
vt 1 0 0
vt 0 0 0
vt 0 1 0
vt 1 1 0
vt 1 0 0
vt 0 0 0
vt 0 1 0
vt 1 1 0
vt 1 0 0
vt 0 0 0
vt 0 1 0
vt 1 1 0
vt 1 0 0
vt 0 0 0
vt 0 1 0
vt 1 1 0
vt 1 0 0
vt 0 0 0
vt 0 1 0
vt 1 1 0
vt 1 0 0
vt 0 0 0
vt 0 1 0
vt 1 1 0
vt 1 0 0
vt 0 0 0
vt 0 1 0
vt 1 1 0
vt 1 0 0
vt 0 0 0
vt 0 1 0
vt 1 1 0
vt 1 0 0
vt 0 0 0
vt 0 1 0
vt 1 1 0
vt 1 0 0
vt 0 0 0
vt 0 1 0
vt 1 1 0
vt 1 0 0
vt 0 0 0
vt 0 1 0
vt 1 1 0
vt 1 0 0
vt 0 0 0
vt 0 1 0
vt 1 1 0
vt 1 0 0
vt 0 0 0
vt 0 1 0
vt 1 1 0
vt 1 0 0
vt 0 0 0
vt 0 1 0
vt 1 1 0
vt 1 0 0
vt 0 0 0
vt 0 1 0
vt 1 1 0
vt 1 0 0
vt 0 0 0
vt 0 1 0
vt 1 1 0
vt 1 0 0
vt 0 0 0
vt 0 1 0
vt 1 1 0
vt 1 0 0
vt 0 0 0
vt 0 1 0
vt 1 1 0
vt 1 0 0
vt 0 0 0
vt 0 1 0
vt 1 1 0
vt 1 0 0
vt 0 0 0
vt 0 1 0
vt 1 1 0
vt 1 0 0
vt 0 0 0
vt 0 1 0
vt 1 1 0
vt 1 0 0
vt 0 0 0
vt 0 1 0
vt 1 1 0
vt 1 0 0
vt 0 0 0
vt 0 1 0
vt 1 1 0
vt 1 0 0
vt 0 0 0
vt 0 1 0
vt 1 1 0
vt 1 0 0
vt 0 0 0
vt 0 1 0
vt 1 1 0
vt 1 0 0
vt 0 0 0
vt 0 1 0
vt 1 1 0
vt 1 0 0
vt 0 0 0
vt 0 1 0
vt 1 1 0
vt 1 0 0
vt 0 0 0
vt 0 1 0
vt 1 1 0
vt 1 0 0
vt 0 0 0
vt 0 1 0
vt 1 1 0
vt 1 0 0
vt 0 0 0
vt 0 1 0
vt 1 1 0
vt 1 0 0
vt 0 0 0
vt 0 1 0
vt 1 1 0
vt 1 0 0
vt 0 0 0
vt 0 1 0
vt 1 1 0
vt 1 0 0
vt 0 0 0
vt 0 1 0
vt 1 1 0
vt 1 0 0
vt 0 0 0
vt 0 1 0
vt 1 1 0
vt 1 0 0
vt 0 0 0
vt 0 1 0
vt 1 1 0
vt 1 0 0
vt 0 0 0
vt 0 1 0
vt 1 1 0
vt 1 0 0
vt 0 0 0
vt 0 1 0
vt 1 1 0
vt 1 0 0
vt 0 0 0
vt 0 1 0
vt 1 1 0
vt 1 0 0
vt 0 0 0
vt 0 1 0
vt 1 1 0
vt 1 0 0
vt 0 0 0
vt 0 1 0
vt 1 1 0
vt 1 0 0
vt 0 0 0
vt 0 1 0
vt 1 1 0
vt 1 0 0
vt 0 0 0
vt 0 1 0
vt 1 1 0
vt 1 0 0
vt 0 0 0
vt 0 1 0
vt 1 1 0
vt 1 0 0
vt 0 0 0
vt 0 1 0
vt 1 1 0
vt 1 0 0
vt 0 0 0
vt 0 1 0
vt 1 1 0
vt 1 0 0
vt 0 0 0
vt 0 1 0
vt 1 1 0
vt 1 0 0
vt 0 0 0
vt 0 1 0
vt 1 1 0
vt 1 0 0
vt 0 0 0
vt 0 1 0
vt 1 1 0
vt 1 0 0
vt 0 0 0
vt 0 1 0
vt 1 1 0
vt 1 0 0
vt 0 0 0
vt 0 1 0
vt 1 1 0
vt 1 0 0
vt 0 0 0
vt 0 1 0
vt 1 1 0
vt 1 0 0
vt 0 0 0
vt 0 1 0
vt 1 1 0
vt 1 0 0
vt 0 0 0
vt 0 1 0
vt 1 1 0
vt 1 0 0
vt 0 0 0
vt 0 1 0
vt 1 1 0
vt 1 0 0
vt 0 0 0
vt 0 1 0
vt 1 1 0
vt 1 0 0
vt 0 0 0
vt 0 1 0
vt 1 1 0
vt 1 0 0
vt 0 0 0
vt 0 1 0
vt 1 1 0
vt 1 0 0
vt 0 0 0
vt 0 1 0
vt 1 1 0
vt 1 0 0
vt 0 0 0
vt 0 1 0
vt 1 1 0
vt 1 0 0
vt 0 0 0
vt 0 1 0
vt 1 1 0
vt 1 0 0
vt 0 0 0
vt 0 1 0
vt 1 1 0
vt 1 0 0
vt 0 0 0
vt 0 1 0
vt 1 1 0
vt 1 0 0
vt 0 0 0
vt 0 1 0
vt 1 1 0
vt 1 0 0
vt 0 0 0
vt 0 1 0
vt 1 1 0
vt 1 0 0
vt 0 0 0
vt 0 1 0
vt 1 1 0
vt 1 0 0
vt 0 0 0
vt 0 1 0
vt 1 1 0
vt 1 0 0
vt 0 0 0
vt 0 1 0
vt 1 1 0
vt 1 0 0
vt 0 0 0
vt 0 1 0
vt 1 1 0
vt 1 0 0
vt 0 0 0
vt 0 1 0
vt 1 1 0
vt 1 0 0
vt 0 0 0
vt 0 1 0
vt 1 1 0
vt 1 0 0
vt 0 0 0
vt 0 1 0
vt 1 1 0
vt 1 0 0
vt 0 0 0
vt 0 1 0
vt 1 1 0
vt 1 0 0
vt 0 0 0
vt 0 1 0
vt 1 1 0
vt 1 0 0
vt 0 0 0
vt 0 1 0
vt 1 1 0
vt 1 0 0
vt 0 0 0
vt 0 1 0
vt 1 1 0
vt 1 0 0
vt 0 0 0
vt 0 1 0
vt 1 1 0
vt 1 0 0
vt 0 0 0
vt 0 1 0
vt 1 1 0
vt 1 0 0
vt 0 0 0
vt 0 1 0
vt 1 1 0
vt 1 0 0
vt 0 0 0
vt 0 1 0
vt 1 1 0
vt 1 0 0
vt 0 0 0
vt 0 1 0
vt 1 1 0
vt 1 0 0
vt 0 0 0
vt 0 1 0
vt 1 1 0
vt 1 0 0
vt 0 0 0
vt 0 1 0
vt 1 1 0
vt 1 0 0
vt 0 0 0
vt 0 1 0
vt 1 1 0
vt 1 0 0
vt 0 0 0
vt 0 1 0
vt 1 1 0
vt 1 0 0
vt 0 0 0
vt 0 1 0
vt 1 1 0
vt 1 0 0
vt 0 0 0
vt 0 1 0
vt 1 1 0
vt 1 0 0
vt 0 0 0
vt 0 1 0
vt 1 1 0
vt 1 0 0
vt 0 0 0
vt 0 1 0
vt 1 1 0
vt 1 0 0
vt 0 0 0
vt 0 1 0
vt 1 1 0
vt 1 0 0
vt 0 0 0
vt 0 1 0
vt 1 1 0
vt 1 0 0
vt 0 0 0
vt 0 1 0
vt 1 1 0
vt 1 0 0
vt 0 0 0
vt 0 1 0
vt 1 1 0
vt 1 0 0
vt 0 0 0
vt 0 1 0
vt 1 1 0
vt 1 0 0
vt 0 0 0
vt 0 1 0
vt 1 1 0
vt 1 0 0
vt 0 0 0
vt 0 1 0
vt 1 1 0
vt 1 0 0
vt 0 0 0
vt 0 1 0
vt 1 1 0
vt 1 0 0
vt 0 0 0
vt 0 1 0
vt 1 1 0
vt 1 0 0
vt 0 0 0
vt 0 1 0
vt 1 1 0
vt 1 0 0
vt 0 0 0
vt 0 1 0
vt 1 1 0
vt 1 0 0
vt 0 0 0
vt 0 1 0
vt 1 1 0
vt 1 0 0
vt 0 0 0
vt 0 1 0
vt 1 1 0
vt 1 0 0
vt 0 0 0
vt 0 1 0
vt 1 1 0
vt 1 0 0
vt 0 0 0
vt 0 1 0
vt 1 1 0
vt 1 0 0
vt 0 0 0
vt 0 1 0
vt 1 1 0
vt 1 0 0
vt 0 0 0
vt 0 1 0
vt 1 1 0
vt 1 0 0
vt 0 0 0
vt 0 1 0
vt 1 1 0
vt 1 0 0
vt 0 0 0
vt 0 1 0
vt 1 1 0
vt 1 0 0
vt 0 0 0
vt 0 1 0
vt 1 1 0
vt 1 0 0
vt 0 0 0
vt 0 1 0
vt 1 1 0
vt 1 0 0
vt 0 0 0
vt 0 1 0
vt 1 1 0
vt 1 0 0
vt 0 0 0
vt 0 1 0
vt 1 1 0
vt 1 0 0
vt 0 0 0
vt 0 1 0
vt 1 1 0
vt 1 0 0
vt 0 0 0
vt 0 1 0
vt 1 1 0
vt 1 0 0
vt 0 0 0
vt 0 1 0
vt 1 1 0
vt 1 0 0
vt 0 0 0
vt 0 1 0
vt 1 1 0
vt 1 0 0
vt 0 0 0
vt 0 1 0
vt 1 1 0
vt 1 0 0
vt 0 0 0
vt 0 1 0
vt 1 1 0
vt 1 0 0
vt 0 0 0
vt 0 1 0
vt 1 1 0
vt 1 0 0
vt 0 0 0
vt 0 1 0
vt 1 1 0
vt 1 0 0
vn -0.1552301 0.6985354 -0.6985354
vn -0.0538187 0.2421841 0.9687365
vn 0.1552301 0.6985354 0.6985354
vn 0.0538187 0.2421841 -0.9687365
vn -0.04962917 -0.4466625 -0.8933251
vn 0.1949481 -0.4386332 -0.8772663
vn 0.04962917 -0.4466625 0.8933251
vn -0.1949481 -0.4386332 0.8772663
vn 0 0 0
vn 0 0 0
vn 0 0 0
vn 0 0 0
vn 0 0 0
vn 0 0 0
vn 0 0 0
vn 0 0 0
vn 0 0 0
vn 0 0 0
vn 0 0 0
vn 0 0 0
vn 0 0 0
vn 0 0 0
vn 0 0 0
vn 0 0 0
vn -0.8834894 0.1559099 -0.4417447
vn -0.7049344 0.07832605 0.7049344
vn 0.9645549 0.1071728 0.2411387
vn 0.3419724 0.4396788 -0.8305044
vn -0.6985354 -0.1552301 -0.6985354
vn 0.9687365 -0.0538187 -0.2421841
vn 0.6985354 -0.1552301 0.6985354
vn -0.9687365 -0.0538187 0.2421841
vn 0 0 0
vn 0 0 0
vn 0 0 0
vn 0 0 0
vn 0 0 0
vn 0 0 0
vn 0 0 0
vn 0 0 0
vn 0 0 0
vn 0 0 0
vn 0 0 0
vn 0 0 0
vn 0 0 0
vn 0 0 0
vn 0 0 0
vn 0 0 0
vn -0.2672613 0.5345225 -0.8017837
vn -0.1924501 0.1924501 0.9622504
vn 0.9107651 -0.3946649 0.1214353
vn 0.1338549 0.2007823 -0.970448
vn -0.1449999 -0.4712496 -0.8699993
vn 0.5240974 -0.3275609 -0.7861462
vn 0.06375767 -0.4463037 0.8926075
vn -0.2475938 -0.4332891 0.8665782
vn 0 0 0
vn 0 0 0
vn 0 0 0
vn 0 0 0
vn 0 0 0
vn 0 0 0
vn 0 0 0
vn 0 0 0
vn 0 0 0
vn 0 0 0
vn 0 0 0
vn 0 0 0
vn 0 0 0
vn 0 0 0
vn 0 0 0
vn 0 0 0
vn -0.1552301 0.6985354 -0.6985354
vn -0.4061384 -0.9138115 0
vn 0.6643639 0.7474093 0
vn 0.0538187 0.2421841 -0.9687365
vn -0.04962917 -0.4466625 -0.8933251
vn 0.1949481 -0.4386332 -0.8772663
vn 0.04962917 -0.4466625 0.8933251
vn -0.1949481 -0.4386332 0.8772663
vn 0 0 0
vn 0 0 0
vn 0 0 0
vn 0 0 0
vn 0 0 0
vn 0 0 0
vn 0 0 0
vn 0 0 0
vn 0 0 0
vn 0 0 0
vn 0 0 0
vn 0 0 0
vn 0 0 0
vn 0 0 0
vn 0 0 0
vn 0 0 0
vn -0.1081125 0.6847125 -0.72075
vn 0 0.2849703 0.9585363
vn 0.1081125 0.6847125 0.72075
vn 0 0.2849703 -0.9585363
vn 0 0 0
vn 0 0 0
vn 0.04962917 -0.4466625 0.8933251
vn -0.1949481 -0.4386332 0.8772663
vn 0 0 0
vn 0 0 0
vn 0 0 0
vn 0 0 0
vn 0 0 0
vn 0 0 0
vn 0 0 0
vn 0 0 0
vn 0 0 0
vn 0 0 0
vn 0 0 0
vn 0 0 0
vn 0 0 0
vn 0 0 0
vn 0 0 0
vn 0 0 0
vn -0.3585686 0.5976143 -0.7171372
vn 0 0.4061384 0.9138115
vn 0.5773503 0.5773503 0.5773503
vn 0 0 0
vn -0.4082483 -0.4082483 -0.8164966
vn 0.6666667 -0.3333333 -0.6666667
vn 0.2182179 -0.4364358 0.8728715
vn -0.6666667 -0.3333333 0.6666667
vn 0 0 0
vn 0 0 0
vn 0 0 0
vn 0 0 0
vn 0 0 0
vn 0 0 0
vn 0 0 0
vn 0 0 0
vn 0 0 0
vn 0 0 0
vn 0 0 0
vn 0 0 0
vn 0 0 0
vn 0 0 0
vn 0 0 0
vn 0 0 0
vn -0.8164966 0.4082483 -0.4082483
vn 0 0 0
vn 0.8164966 0.4082483 0.4082483
vn 0.4364358 0.2182179 -0.8728715
vn -0.4082483 -0.4082483 -0.8164966
vn 0.8728715 -0.2182179 -0.4364358
vn 0.4082483 -0.4082483 0.8164966
vn -0.8728715 -0.2182179 0.4364358
vn 0 0 0
vn 0 0 0
vn 0 0 0
vn 0 0 0
vn 0 0 0
vn 0 0 0
vn 0 0 0
vn 0 0 0
vn 0 0 0
vn 0 0 0
vn 0 0 0
vn 0 0 0
vn 0 0 0
vn 0 0 0
vn 0 0 0
vn 0 0 0
vn -0.8164966 0.4082483 -0.4082483
vn -0.4364358 0.2182179 0.8728715
vn 0.8164966 0.4082483 0.4082483
vn 0.4364358 0.2182179 -0.8728715
vn 0 0 0
vn 0.8728715 -0.2182179 -0.4364358
vn -0.04793409 -0.9906378 -0.1278242
vn 0 0 0
vn 0 0 0
vn 0 0 0
vn 0 0 0
vn 0 0 0
vn 0 0 0
vn 0 0 0
vn 0 0 0
vn 0 0 0
vn 0 0 0
vn 0 0 0
vn 0 0 0
vn 0 0 0
vn 0 0 0
vn 0 0 0
vn 0 0 0
vn 0 0 0
vn -0.6666667 0.6666667 -0.3333333
vn 0 0 0
vn 0 0 0
vn 0 0 0
vn -0.3333333 -0.6666667 -0.6666667
vn 0.8164966 -0.4082483 -0.4082483
vn 0.3333333 -0.6666667 0.6666667
vn -0.8164966 -0.4082483 0.4082483
vn 0 0 0
vn 0 0 0
vn 0 0 0
vn 0 0 0
vn 0 0 0
vn 0 0 0
vn 0 0 0
vn 0 0 0
vn 0 0 0
vn 0 0 0
vn 0 0 0
vn 0 0 0
vn 0 0 0
vn 0 0 0
vn 0 0 0
vn 0 0 0
vn 0 0 0
vn -0.06052276 0.242091 0.9683641
vn 0.120289 0.6816379 0.7217342
vn 0 0.2900074 -0.9570244
vn -0.05581456 -0.4465165 -0.8930329
vn 0.3481553 -0.3481553 -0.8703883
vn 0.05581456 -0.4465165 0.8930329
vn -0.2182179 -0.4364358 0.8728715
vn 0 0 0
vn 0 0 0
vn 0 0 0
vn 0 0 0
vn 0 0 0
vn 0 0 0
vn 0 0 0
vn 0 0 0
vn 0 0 0
vn 0 0 0
vn 0 0 0
vn 0 0 0
vn 0 0 0
vn 0 0 0
vn 0 0 0
vn 0 0 0
vn -0.163605 0.98163 -0.09816301
vn -0.1218855 0.9446129 0.3047138
vn 0.3768066 0.9151019 0.1435454
vn 0.6693758 0.6693758 -0.3222921
vn 0 0 0
vn 0 0 0
vn 0.6452675 -0.7279941 -0.2316345
vn -0.2468854 -0.9566808 0.1543034
vn 0 0 0
vn 0 0 0
vn 0 0 0
vn 0 0 0
vn 0 0 0
vn 0 0 0
vn 0 0 0
vn 0 0 0
vn 0 0 0
vn 0 0 0
vn 0 0 0
vn 0 0 0
vn 0 0 0
vn 0 0 0
vn 0 0 0
vn 0 0 0
vn -0.8888889 0.4444444 -0.1111111
vn -0.8164966 0.4082483 0.4082483
vn 0.8888889 0.4444444 0.1111111
vn 0.8164966 0.4082483 -0.4082483
vn -0.6666667 -0.6666667 -0.3333333
vn 0.9630868 -0.2407717 -0.1203859
vn 0.6666667 -0.6666667 0.3333333
vn -0.9630868 -0.2407717 0.1203859
vn 0 0 0
vn 0 0 0
vn 0 0 0
vn 0 0 0
vn 0 0 0
vn 0 0 0
vn 0 0 0
vn 0 0 0
vn 0 0 0
vn 0 0 0
vn 0 0 0
vn 0 0 0
vn 0 0 0
vn 0 0 0
vn 0 0 0
vn 0 0 0
vn -0.2425356 0.5820855 -0.776114
vn -0.1338549 0.2007823 0.970448
vn 0.2425356 0.5820855 0.776114
vn 0 0 0
vn 0 -0.376377 -0.9264665
vn 0.2475938 -0.4332891 -0.8665782
vn 0.1026579 -0.4448508 0.8897017
vn -0.3840123 -0.4320138 0.8160261
vn 0 0 0
vn 0 0 0
vn 0 0 0
vn 0 0 0
vn 0 0 0
vn 0 0 0
vn 0 0 0
vn 0 0 0
vn 0 0 0
vn 0 0 0
vn 0 0 0
vn 0 0 0
vn 0 0 0
vn 0 0 0
vn 0 0 0
vn 0 0 0
vn -0.9081533 0.09081533 -0.408669
vn -0.6666667 0.6666667 0.3333333
vn 0.7043607 0.7043607 0.08804509
vn 0.9772067 0.03490024 -0.2094014
vn -0.4364358 -0.8728715 -0.2182179
vn 0.8888889 -0.4444444 -0.1111111
vn 0.2119996 -0.7419986 0.6359987
vn 0 0 0
vn 0 0 0
vn 0 0 0
vn 0 0 0
vn 0 0 0
vn 0 0 0
vn 0 0 0
vn 0 0 0
vn 0 0 0
vn 0 0 0
vn 0 0 0
vn 0 0 0
vn 0 0 0
vn 0 0 0
vn 0 0 0
vn 0 0 0
vn 0 0 0
vn -0.9577043 0.2394261 -0.1596174
vn -0.8146131 0.2036533 0.5430754
vn 0.9577043 0.2394261 0.1596174
vn 0.8146131 0.2036533 -0.5430754
vn 0 0 0
vn 0 0 0
vn 0.7682213 -0.3841106 0.5121475
vn -0.9789804 -0.1223726 0.1631634
vn 0 0 0
vn 0 0 0
vn 0 0 0
vn 0 0 0
vn 0 0 0
vn 0 0 0
vn 0 0 0
vn 0 0 0
vn 0 0 0
vn 0 0 0
vn 0 0 0
vn 0 0 0
vn 0 0 0
vn 0 0 0
vn 0 0 0
vn 0 0 0
vn -0.8164966 0.4082483 -0.4082483
vn 0 0 0
vn 0.1829132 0.4877686 0.853595
vn 0 0.7926239 -0.6097108
vn -0.4082483 -0.4082483 -0.8164966
vn 0.8728715 -0.2182179 -0.4364358
vn 0.4082483 -0.4082483 0.8164966
vn -0.8728715 -0.2182179 0.4364358
vn 0 0 0
vn 0 0 0
vn 0 0 0
vn 0 0 0
vn 0 0 0
vn 0 0 0
vn 0 0 0
vn 0 0 0
vn 0 0 0
vn 0 0 0
vn 0 0 0
vn 0 0 0
vn 0 0 0
vn 0 0 0
vn 0 0 0
vn 0 0 0
vn 0 0 0
vn 0 0 0
vn 0.147442 0.8846517 0.4423259
vn 0.07432941 0.4459765 -0.891953
vn -0.05882353 -0.7058824 -0.7058824
vn 0.3030457 -0.5050763 -0.808122
vn 0.179928 -0.5997602 0.7796882
vn -0.2294157 -0.6882472 0.6882472
vn 0 0 0
vn 0 0 0
vn 0 0 0
vn 0 0 0
vn 0 0 0
vn 0 0 0
vn 0 0 0
vn 0 0 0
vn 0 0 0
vn 0 0 0
vn 0 0 0
vn 0 0 0
vn 0 0 0
vn 0 0 0
vn 0 0 0
vn 0 0 0
vn -0.8164966 0.4082483 -0.4082483
vn -0.4364358 0.2182179 0.8728715
vn 0 0 0
vn 0 0 0
vn -0.4082483 -0.4082483 -0.8164966
vn 0.8728715 -0.2182179 -0.4364358
vn 0.4082483 -0.4082483 0.8164966
vn -0.8728715 -0.2182179 0.4364358
vn 0 0 0
vn 0 0 0
vn 0 0 0
vn 0 0 0
vn 0 0 0
vn 0 0 0
vn 0 0 0
vn 0 0 0
vn 0 0 0
vn 0 0 0
vn 0 0 0
vn 0 0 0
vn 0 0 0
vn 0 0 0
vn 0 0 0
vn 0 0 0
vn -0.4264014 0.6396022 -0.6396022
vn -0.0538187 0.2421841 0.9687365
vn 0.1552301 0.6985354 0.6985354
vn 0.147442 -0.4423258 -0.8846517
vn -0.04962917 -0.4466625 -0.8933251
vn 0.1949481 -0.4386332 -0.8772663
vn 0.04962917 -0.4466625 0.8933251
vn -0.1949481 -0.4386332 0.8772663
vn 0 0 0
vn 0 0 0
vn 0 0 0
vn 0 0 0
vn 0 0 0
vn 0 0 0
vn 0 0 0
vn 0 0 0
vn 0 0 0
vn 0 0 0
vn 0 0 0
vn 0 0 0
vn 0 0 0
vn 0 0 0
vn 0 0 0
vn 0 0 0
vn -0.08988322 0.6891047 -0.7190658
vn 0 0.2775397 0.9607142
vn 0.08988322 0.6891047 0.7190658
vn 0 0.2775397 -0.9607142
vn -0.04062222 -0.4468445 -0.8936889
vn 0.1605145 -0.4414148 -0.8828295
vn 0.1210701 -0.4439239 0.8878477
vn -0.3598561 0.6597362 0.6597362
vn 0 0 0
vn 0 0 0
vn 0 0 0
vn 0 0 0
vn 0 0 0
vn 0 0 0
vn 0 0 0
vn 0 0 0
vn 0 0 0
vn 0 0 0
vn 0 0 0
vn 0 0 0
vn 0 0 0
vn 0 0 0
vn 0 0 0
vn 0 0 0
vn -0.6109598 0.4073066 -0.6788442
vn 0 0.4472136 0.8944272
vn 0.233373 0.2722684 0.9334918
vn 0.2893457 0.6269157 -0.7233643
vn -0.4364358 -0.2182179 -0.8728715
vn 0.8888889 -0.1111111 -0.4444444
vn 0.4364358 -0.2182179 0.8728715
vn -0.8888889 -0.1111111 0.4444444
vn 0 0 0
vn 0 0 0
vn 0 0 0
vn 0 0 0
vn 0 0 0
vn 0 0 0
vn 0 0 0
vn 0 0 0
vn 0 0 0
vn 0 0 0
vn 0 0 0
vn 0 0 0
vn 0 0 0
vn 0 0 0
vn 0 0 0
vn 0 0 0
vn 0 0 0
vn -0.04062222 0.4468445 0.8936889
vn 0.08104409 0.891485 0.4457425
vn 0 0 0
vn -0.03212463 -0.7067418 -0.7067418
vn 0.1275153 -0.7013344 -0.7013344
vn 0.03212463 -0.7067418 0.7067418
vn -0.1275153 -0.7013344 0.7013344
vn 0 0 0
vn 0 0 0
vn 0 0 0
vn 0 0 0
vn 0 0 0
vn 0 0 0
vn 0 0 0
vn 0 0 0
vn 0 0 0
vn 0 0 0
vn 0 0 0
vn 0 0 0
vn 0 0 0
vn 0 0 0
vn 0 0 0
vn 0 0 0
vn -0.09889363 0.8900427 -0.4450214
vn -0.04962917 0.4466625 0.8933251
vn 0.09889363 0.8900427 0.4450214
vn 0.04962917 0.4466625 -0.8933251
vn -0.03925343 -0.7065618 -0.7065618
vn 0.1552301 -0.6985354 -0.6985354
vn 0 0 0
vn 0 0 0
vn 0 0 0
vn 0 0 0
vn 0 0 0
vn 0 0 0
vn 0 0 0
vn 0 0 0
vn 0 0 0
vn 0 0 0
vn 0 0 0
vn 0 0 0
vn 0 0 0
vn 0 0 0
vn 0 0 0
vn 0 0 0
vn 0 0 0
vn 0 0 0
vn -0.6666667 0.6666667 -0.3333333
vn -0.4082483 0.4082483 0.8164966
vn 0.6666667 0.6666667 0.3333333
vn 0 0 0
vn 0 0 0
vn 0 0 0
vn 0.3333333 -0.6666667 0.6666667
vn 0 0 0
vn 0 0 0
vn 0 0 0
vn 0 0 0
vn 0 0 0
vn 0 0 0
vn 0 0 0
vn 0 0 0
vn 0 0 0
vn 0 0 0
vn 0 0 0
vn 0 0 0
vn 0 0 0
vn 0 0 0
vn 0 0 0
vn 0 0 0
vn 0 0 0
vn -0.9634605 0.1328911 -0.2325594
vn -0.8017837 0.5345225 0.2672613
vn 0.7715167 0.6172134 0.1543033
vn 0.9895737 0.05349047 -0.1337262
vn -0.443607 -0.8872139 -0.1267449
vn 0.8926075 -0.4463037 -0.06375767
vn 0.443607 -0.8872139 0.1267449
vn -0.8926075 -0.4463037 0.06375767
vn 0 0 0
vn 0 0 0
vn 0 0 0
vn 0 0 0
vn 0 0 0
vn 0 0 0
vn 0 0 0
vn 0 0 0
vn 0 0 0
vn 0 0 0
vn 0 0 0
vn 0 0 0
vn 0 0 0
vn 0 0 0
vn 0 0 0
vn 0 0 0
vn -0.2857143 0.8571429 -0.4285715
vn -0.147442 0.4423259 0.8846517
vn 0.2357023 0.9428091 0.2357023
vn -0.9923595 -0.06843859 -0.1026579
vn -0.1170411 -0.7022469 -0.7022469
vn 0.4264014 -0.6396022 -0.6396022
vn 0.1170411 -0.7022469 0.7022469
vn -0.4264014 -0.6396022 0.6396022
vn 0 0 0
vn 0 0 0
vn 0 0 0
vn 0 0 0
vn 0 0 0
vn 0 0 0
vn 0 0 0
vn 0 0 0
vn 0 0 0
vn 0 0 0
vn 0 0 0
vn 0 0 0
vn 0 0 0
vn 0 0 0
vn 0 0 0
vn 0 0 0
vn -0.9609133 0.2702569 -0.06005708
vn -0.95448 0.178965 0.23862
vn 0 0 0
vn 0 0 0
vn 0 0 0
vn 0 0 0
vn 0.8093446 -0.4980583 0.3112864
vn 0 0 0
vn 0 0 0
vn 0 0 0
vn 0 0 0
vn 0 0 0
vn 0 0 0
vn 0 0 0
vn 0 0 0
vn 0 0 0
vn 0 0 0
vn 0 0 0
vn 0 0 0
vn 0 0 0
vn 0 0 0
vn 0 0 0
vn 0 0 0
vn 0 0 0
vn -0.8908708 0.4454354 -0.08908708
vn -0.8421519 0.421076 0.3368608
vn 0.8908708 0.4454354 0.08908708
vn 0.8421519 0.421076 -0.3368608
vn -0.7664063 -0.6270597 -0.1393466
vn 0 0 0
vn 0 0 0
vn -0.9898268 -0.1349764 0.04499213
vn 0 0 0
vn 0 0 0
vn 0 0 0
vn 0 0 0
vn 0 0 0
vn 0 0 0
vn 0 0 0
vn 0 0 0
vn 0 0 0
vn 0 0 0
vn 0 0 0
vn 0 0 0
vn 0 0 0
vn 0 0 0
vn 0 0 0
vn 0 0 0
vn 0 0 0
vn -0.4082483 0.4082483 0.8164966
vn 0.6666667 0.6666667 0.3333333
vn 0 0 0
vn 0 0 0
vn 0 0 0
vn 0 0 0
vn -0.8164966 -0.4082483 0.4082483
vn 0 0 0
vn 0 0 0
vn 0 0 0
vn 0 0 0
vn 0 0 0
vn 0 0 0
vn 0 0 0
vn 0 0 0
vn 0 0 0
vn 0 0 0
vn 0 0 0
vn 0 0 0
vn 0 0 0
vn 0 0 0
vn 0 0 0
vn 0 0 0
vn -0.4155814 0.3694057 -0.8311628
vn 0 0.52145 0.8532819
vn 0.3369936 0.280828 0.8986496
vn 0.3889222 0.5833833 -0.7130241
vn -0.4364358 -0.2182179 -0.8728715
vn 0.8888889 -0.1111111 -0.4444444
vn 0.4364358 -0.2182179 0.8728715
vn -0.8888889 -0.1111111 0.4444444
vn 0 0 0
vn 0 0 0
vn 0 0 0
vn 0 0 0
vn 0 0 0
vn 0 0 0
vn 0 0 0
vn 0 0 0
vn 0 0 0
vn 0 0 0
vn 0 0 0
vn 0 0 0
vn 0 0 0
vn 0 0 0
vn 0 0 0
vn 0 0 0
vn 0 0 0
vn 0.7071068 0 0.7071068
vn 0 0 0
vn 0 0 0
vn -0.3333333 -0.6666667 -0.6666667
vn 0.8164966 -0.4082483 -0.4082483
vn 0.3333333 -0.6666667 0.6666667
vn -0.8164966 -0.4082483 0.4082483
vn 0 0 0
vn 0 0 0
vn 0 0 0
vn 0 0 0
vn 0 0 0
vn 0 0 0
vn 0 0 0
vn 0 0 0
vn 0 0 0
vn 0 0 0
vn 0 0 0
vn 0 0 0
vn 0 0 0
vn 0 0 0
vn 0 0 0
vn 0 0 0
vn -0.6666667 0.6666667 -0.3333333
vn -0.4082483 0.4082483 0.8164966
vn 0.6666667 0.6666667 0.3333333
vn 0 0 0
vn 0 0 0
vn 0 0 0
vn 0 0 0
vn 0 0 0
vn 0 0 0
vn 0 0 0
vn 0 0 0
vn 0 0 0
vn 0 0 0
vn 0 0 0
vn 0 0 0
vn 0 0 0
vn 0 0 0
vn 0 0 0
vn 0 0 0
vn 0 0 0
vn 0 0 0
vn 0 0 0
vn 0 0 0
vn 0 0 0
vn 0 0 0
vn 0 0 0
vn 0 0 0
vn 0.4082483 0.4082483 -0.8164966
vn -0.3333333 -0.6666667 -0.6666667
vn 0.8164966 -0.4082483 -0.4082483
vn 0.3333333 -0.6666667 0.6666667
vn -0.8164966 -0.4082483 0.4082483
vn 0 0 0
vn 0 0 0
vn 0 0 0
vn 0 0 0
vn 0 0 0
vn 0 0 0
vn 0 0 0
vn 0 0 0
vn 0 0 0
vn 0 0 0
vn 0 0 0
vn 0 0 0
vn 0 0 0
vn 0 0 0
vn 0 0 0
vn 0 0 0
vn -0.6666667 0.6666667 -0.3333333
vn 0 0 0
vn 0 0 0
vn 0.4082483 0.4082483 -0.8164966
vn -0.3333333 -0.6666667 -0.6666667
vn 0 0 0
vn 0 0 0
vn 0 0 0
vn 0 0 0
vn 0 0 0
vn 0 0 0
vn 0 0 0
vn 0 0 0
vn 0 0 0
vn 0 0 0
vn 0 0 0
vn 0 0 0
vn 0 0 0
vn 0 0 0
vn 0 0 0
vn 0 0 0
vn 0 0 0
vn 0 0 0
vn 0 0 0
vn -0.1431414 0.262426 -0.9542763
vn -0.18917 0.662095 0.7251517
vn 0.6109598 0.4073066 0.6788442
vn 0 0.4472136 -0.8944272
vn -0.4364358 -0.2182179 -0.8728715
vn 0.8888889 -0.1111111 -0.4444444
vn 0.4364358 -0.2182179 0.8728715
vn -0.8888889 -0.1111111 0.4444444
vn 0 0 0
vn 0 0 0
vn 0 0 0
vn 0 0 0
vn 0 0 0
vn 0 0 0
vn 0 0 0
vn 0 0 0
vn 0 0 0
vn 0 0 0
vn 0 0 0
vn 0 0 0
vn 0 0 0
vn 0 0 0
vn 0 0 0
vn 0 0 0
vn -0.8164966 0.4082483 -0.4082483
vn -0.4364358 0.2182179 0.8728715
vn 0 0 0
vn 0.4364358 0.2182179 -0.8728715
vn -0.4082483 -0.4082483 -0.8164966
vn 0.8728715 -0.2182179 -0.4364358
vn 0.4082483 -0.4082483 0.8164966
vn -0.8728715 -0.2182179 0.4364358
vn 0 0 0
vn 0 0 0
vn 0 0 0
vn 0 0 0
vn 0 0 0
vn 0 0 0
vn 0 0 0
vn 0 0 0
vn 0 0 0
vn 0 0 0
vn 0 0 0
vn 0 0 0
vn 0 0 0
vn 0 0 0
vn 0 0 0
vn 0 0 0
vn -0.05952276 0.8928414 -0.4464207
vn -0.029801 0.447015 0.8940299
vn 0.05952276 0.8928414 0.4464207
vn 0.029801 0.447015 -0.8940299
vn -0.02356368 -0.7069104 -0.7069104
vn 0.09386465 -0.7039849 -0.7039849
vn 0.02356368 -0.7069104 0.7069104
vn -0.09386465 -0.7039849 0.7039849
vn 0 0 0
vn 0 0 0
vn 0 0 0
vn 0 0 0
vn 0 0 0
vn 0 0 0
vn 0 0 0
vn 0 0 0
vn 0 0 0
vn 0 0 0
vn 0 0 0
vn 0 0 0
vn 0 0 0
vn 0 0 0
vn 0 0 0
vn 0 0 0
vn -0.8571429 0.2857143 -0.4285715
vn 0 0 0
vn 0 0 0
vn 0.4423259 0.147442 -0.8846517
vn -0.4285715 -0.2857143 -0.8571429
vn 0.8846517 -0.147442 -0.4423259
vn 0.4285715 -0.2857143 0.8571429
vn -0.8846517 -0.147442 0.4423259
vn 0 0 0
vn 0 0 0
vn 0 0 0
vn 0 0 0
vn 0 0 0
vn 0 0 0
vn 0 0 0
vn 0 0 0
vn 0 0 0
vn 0 0 0
vn 0 0 0
vn 0 0 0
vn 0 0 0
vn 0 0 0
vn 0 0 0
vn 0 0 0
vn -0.4264014 0.6396022 -0.6396022
vn -0.1596174 0.2394261 0.9577043
vn 0 0 0
vn 0 0 0
vn -0.147442 -0.4423259 -0.8846517
vn 0.5121475 -0.3841106 -0.7682213
vn 0.147442 -0.4423259 0.8846517
vn -0.7620007 -0.1270001 0.6350006
vn 0 0 0
vn 0 0 0
vn 0 0 0
vn 0 0 0
vn 0 0 0
vn 0 0 0
vn 0 0 0
vn 0 0 0
vn 0 0 0
vn 0 0 0
vn 0 0 0
vn 0 0 0
vn 0 0 0
vn 0 0 0
vn 0 0 0
vn 0 0 0
vn 0 0 0
vn -0.4082483 0.4082483 0.8164966
vn 0 0 0
vn 0 0 0
vn -0.3333333 -0.6666667 -0.6666667
vn 0.8164966 -0.4082483 -0.4082483
vn 0.3333333 -0.6666667 0.6666667
vn -0.8164966 -0.4082483 0.4082483
vn 0 0 0
vn 0 0 0
vn 0 0 0
vn 0 0 0
vn 0 0 0
vn 0 0 0
vn 0 0 0
vn 0 0 0
vn 0 0 0
vn 0 0 0
vn 0 0 0
vn 0 0 0
vn 0 0 0
vn 0 0 0
vn 0 0 0
vn 0 0 0
vn 0 0 0
vn 0 0 0
vn 0 0 0
vn 0 0 0
vn -0.08908708 -0.4454354 -0.8908708
vn 0.3368608 -0.421076 -0.8421519
vn 0.08908708 -0.4454354 0.8908708
vn -0.3368608 -0.421076 0.8421519
vn 0 0 0
vn 0 0 0
vn 0 0 0
vn 0 0 0
vn 0 0 0
vn 0 0 0
vn 0 0 0
vn 0 0 0
vn 0 0 0
vn 0 0 0
vn 0 0 0
vn 0 0 0
vn 0 0 0
vn 0 0 0
vn 0 0 0
vn 0 0 0
vn -0.1552301 0.6985354 -0.6985354
vn -0.0538187 0.2421841 0.9687365
vn 0 0 0
vn 0 0 0
vn -0.07867542 -0.4458274 -0.8916547
vn 0.1949481 -0.4386332 -0.8772663
vn 0.04962917 -0.4466625 0.8933251
vn -0.1949481 -0.4386332 0.8772663
vn 0 0 0
vn 0 0 0
vn 0 0 0
vn 0 0 0
vn 0 0 0
vn 0 0 0
vn 0 0 0
vn 0 0 0
vn 0 0 0
vn 0 0 0
vn 0 0 0
vn 0 0 0
vn 0 0 0
vn 0 0 0
vn 0 0 0
vn 0 0 0
vn -0.6666667 0.6666667 -0.3333333
vn 0 0 0
vn 0 0 0
vn 0 0 0
vn -0.3333333 -0.6666667 -0.6666667
vn 0.8164966 -0.4082483 -0.4082483
vn 0.3333333 -0.6666667 0.6666667
vn -0.8164966 -0.4082483 0.4082483
vn 0 0 0
vn 0 0 0
vn 0 0 0
vn 0 0 0
vn 0 0 0
vn 0 0 0
vn 0 0 0
vn 0 0 0
vn 0 0 0
vn 0 0 0
vn 0 0 0
vn 0 0 0
vn 0 0 0
vn 0 0 0
vn 0 0 0
vn 0 0 0
vn 0 0 0
vn 0 0 0
vn 0.4264014 0.6396022 0.6396022
vn 0.1596174 0.2394261 -0.9577043
vn -0.147442 -0.4423259 -0.8846517
vn 0.7620007 -0.1270001 -0.6350006
vn 0.147442 -0.4423259 0.8846517
vn -0.5121475 -0.3841106 0.7682213
vn 0 0 0
vn 0 0 0
vn 0 0 0
vn 0 0 0
vn 0 0 0
vn 0 0 0
vn 0 0 0
vn 0 0 0
vn 0 0 0
vn 0 0 0
vn 0 0 0
vn 0 0 0
vn 0 0 0
vn 0 0 0
vn 0 0 0
vn 0 0 0
vn 0 0 0
vn 0 0 0
vn 0 0 0
vn 0.4082483 0.4082483 -0.8164966
vn -0.3333333 -0.6666667 -0.6666667
vn 0.8164966 -0.4082483 -0.4082483
vn 0.3333333 -0.6666667 0.6666667
vn -0.8164966 -0.4082483 0.4082483
vn 0 0 0
vn 0 0 0
vn 0 0 0
vn 0 0 0
vn 0 0 0
vn 0 0 0
vn 0 0 0
vn 0 0 0
vn 0 0 0
vn 0 0 0
vn 0 0 0
vn 0 0 0
vn 0 0 0
vn 0 0 0
vn 0 0 0
vn 0 0 0
vn 0 0 0
vn 0 0 0
vn 0.4264014 0.6396022 0.6396022
vn 0.1596174 0.2394261 -0.9577043
vn -0.147442 -0.4423259 -0.8846517
vn 0.5121475 -0.3841106 -0.7682213
vn 0.2591605 -0.4319342 0.8638685
vn -0.5121475 -0.3841106 0.7682213
vn 0 0 0
vn 0 0 0
vn 0 0 0
vn 0 0 0
vn 0 0 0
vn 0 0 0
vn 0 0 0
vn 0 0 0
vn 0 0 0
vn 0 0 0
vn 0 0 0
vn 0 0 0
vn 0 0 0
vn 0 0 0
vn 0 0 0
vn 0 0 0
vn 0 0 0
vn 0 0 0
vn 0.6666667 0.6666667 0.3333333
vn 0 0 0
vn -0.3333333 -0.6666667 -0.6666667
vn 0.8164966 -0.4082483 -0.4082483
vn 0.3333333 -0.6666667 0.6666667
vn -0.8164966 -0.4082483 0.4082483
vn 0 0 0
vn 0 0 0
vn 0 0 0
vn 0 0 0
vn 0 0 0
vn 0 0 0
vn 0 0 0
vn 0 0 0
vn 0 0 0
vn 0 0 0
vn 0 0 0
vn 0 0 0
vn 0 0 0
vn 0 0 0
vn 0 0 0
vn 0 0 0
vn 0 0 0
vn 0 0 0
vn 0 0 0
vn 0 0 0
vn -0.4285715 -0.2857143 -0.8571429
vn 0.8846517 -0.147442 -0.4423259
vn 0.4285715 -0.2857143 0.8571429
vn -0.8846517 -0.147442 0.4423259
vn 0 0 0
vn 0 0 0
vn 0 0 0
vn 0 0 0
vn 0 0 0
vn 0 0 0
vn 0 0 0
vn 0 0 0
vn 0 0 0
vn 0 0 0
vn 0 0 0
vn 0 0 0
vn 0 0 0
vn 0 0 0
vn 0 0 0
vn 0 0 0

g 
f 1/1 2/2 3/3
f 1/1 3/3 4/4
f 5/5 6/6 7/7
f 5/5 7/7 8/8
f 5/5 1/1 4/4
f 5/5 4/4 6/6
f 6/6 4/4 3/3
f 6/6 3/3 7/7
f 7/7 3/3 2/2
f 7/7 2/2 8/8
f 8/8 2/2 1/1
f 8/8 1/1 5/5
f 25/25 26/26 27/27
f 25/25 27/27 28/28
f 29/29 30/30 31/31
f 29/29 31/31 32/32
f 29/29 25/25 28/28
f 29/29 28/28 30/30
f 30/30 28/28 27/27
f 30/30 27/27 31/31
f 31/31 27/27 26/26
f 31/31 26/26 32/32
f 32/32 26/26 25/25
f 32/32 25/25 29/29
f 49/49 50/50 51/51
f 49/49 51/51 52/52
f 53/53 54/54 55/55
f 53/53 55/55 56/56
f 53/53 49/49 52/52
f 53/53 52/52 54/54
f 54/54 52/52 51/51
f 54/54 51/51 55/55
f 55/55 51/51 50/50
f 55/55 50/50 56/56
f 56/56 50/50 49/49
f 56/56 49/49 53/53
f 73/73 74/74 75/75
f 73/73 75/75 76/76
f 77/77 78/78 79/79
f 77/77 79/79 80/80
f 77/77 73/73 76/76
f 77/77 76/76 78/78
f 78/78 76/76 75/75
f 78/78 75/75 79/79
f 79/79 75/75 74/74
f 79/79 74/74 80/80
f 80/80 74/74 73/73
f 80/80 73/73 77/77
f 97/97 98/98 99/99
f 97/97 99/99 100/100
f 74/74 75/75 103/103
f 74/74 103/103 104/104
f 74/74 97/97 100/100
f 74/74 100/100 75/75
f 75/75 100/100 99/99
f 75/75 99/99 103/103
f 103/103 99/99 98/98
f 103/103 98/98 104/104
f 104/104 98/98 97/97
f 104/104 97/97 74/74
f 121/121 122/122 123/123
f 121/121 123/123 25/25
f 125/125 126/126 127/127
f 125/125 127/127 128/128
f 125/125 121/121 25/25
f 125/125 25/25 126/126
f 126/126 25/25 123/123
f 126/126 123/123 127/127
f 127/127 123/123 122/122
f 127/127 122/122 128/128
f 128/128 122/122 121/121
f 128/128 121/121 125/125
f 145/145 53/53 147/147
f 145/145 147/147 148/148
f 149/149 150/150 151/151
f 149/149 151/151 152/152
f 149/149 145/145 148/148
f 149/149 148/148 150/150
f 150/150 148/148 147/147
f 150/150 147/147 151/151
f 151/151 147/147 53/53
f 151/151 53/53 152/152
f 152/152 53/53 145/145
f 152/152 145/145 149/149
f 169/169 170/170 171/171
f 169/169 171/171 172/172
f 49/49 174/174 175/175
f 49/49 175/175 50/50
f 49/49 169/169 172/172
f 49/49 172/172 174/174
f 174/174 172/172 171/171
f 174/174 171/171 175/175
f 175/175 171/171 170/170
f 175/175 170/170 50/50
f 50/50 170/170 169/169
f 50/50 169/169 49/49
f 193/193 125/125 98/98
f 193/193 98/98 97/97
f 197/197 198/198 199/199
f 197/197 199/199 200/200
f 197/197 193/193 97/97
f 197/197 97/97 198/198
f 198/198 97/97 98/98
f 198/198 98/98 199/199
f 199/199 98/98 125/125
f 199/199 125/125 200/200
f 200/200 125/125 193/193
f 200/200 193/193 197/197
f 28/28 218/218 219/219
f 28/28 219/219 220/220
f 221/221 222/222 223/223
f 221/221 223/223 224/224
f 221/221 28/28 220/220
f 221/221 220/220 222/222
f 222/222 220/220 219/219
f 222/222 219/219 223/223
f 223/223 219/219 218/218
f 223/223 218/218 224/224
f 224/224 218/218 28/28
f 224/224 28/28 221/221
f 241/241 242/242 243/243
f 241/241 243/243 244/244
f 175/175 51/51 247/247
f 175/175 247/247 248/248
f 175/175 241/241 244/244
f 175/175 244/244 51/51
f 51/51 244/244 243/243
f 51/51 243/243 247/247
f 247/247 243/243 242/242
f 247/247 242/242 248/248
f 248/248 242/242 241/241
f 248/248 241/241 175/175
f 265/265 266/266 267/267
f 265/265 267/267 268/268
f 269/269 270/270 271/271
f 269/269 271/271 272/272
f 269/269 265/265 268/268
f 269/269 268/268 270/270
f 270/270 268/268 267/267
f 270/270 267/267 271/271
f 271/271 267/267 266/266
f 271/271 266/266 272/272
f 272/272 266/266 265/265
f 272/272 265/265 269/269
f 289/289 290/290 291/291
f 289/289 291/291 247/247
f 293/293 294/294 295/295
f 293/293 295/295 296/296
f 293/293 289/289 247/247
f 293/293 247/247 294/294
f 294/294 247/247 291/291
f 294/294 291/291 295/295
f 295/295 291/291 290/290
f 295/295 290/290 296/296
f 296/296 290/290 289/289
f 296/296 289/289 293/293
f 313/313 314/314 315/315
f 313/313 315/315 316/316
f 317/317 318/318 319/319
f 317/317 319/319 296/296
f 317/317 313/313 316/316
f 317/317 316/316 318/318
f 318/318 316/316 315/315
f 318/318 315/315 319/319
f 319/319 315/315 314/314
f 319/319 314/314 296/296
f 296/296 314/314 313/313
f 296/296 313/313 317/317
f 337/337 338/338 339/339
f 337/337 339/339 340/340
f 313/313 316/316 343/343
f 313/313 343/343 344/344
f 313/313 337/337 340/340
f 313/313 340/340 316/316
f 316/316 340/340 339/339
f 316/316 339/339 343/343
f 343/343 339/339 338/338
f 343/343 338/338 344/344
f 344/344 338/338 337/337
f 344/344 337/337 313/313
f 361/361 319/319 363/363
f 361/361 363/363 364/364
f 365/365 366/366 367/367
f 365/365 367/367 368/368
f 365/365 361/361 364/364
f 365/365 364/364 366/366
f 366/366 364/364 363/363
f 366/366 363/363 367/367
f 367/367 363/363 319/319
f 367/367 319/319 368/368
f 368/368 319/319 361/361
f 368/368 361/361 365/365
f 364/364 363/363 387/387
f 364/364 387/387 388/388
f 389/389 390/390 391/391
f 389/389 391/391 392/392
f 389/389 364/364 388/388
f 389/389 388/388 390/390
f 390/390 388/388 387/387
f 390/390 387/387 391/391
f 391/391 387/387 363/363
f 391/391 363/363 392/392
f 392/392 363/363 364/364
f 392/392 364/364 389/389
f 409/409 410/410 296/296
f 409/409 296/296 293/293
f 413/413 414/414 415/415
f 413/413 415/415 416/416
f 413/413 409/409 293/293
f 413/413 293/293 414/414
f 414/414 293/293 296/296
f 414/414 296/296 415/415
f 415/415 296/296 410/410
f 415/415 410/410 416/416
f 416/416 410/410 409/409
f 416/416 409/409 413/413
f 433/433 434/434 435/435
f 433/433 435/435 436/436
f 437/437 438/438 439/439
f 437/437 439/439 440/440
f 437/437 433/433 436/436
f 437/437 436/436 438/438
f 438/438 436/436 435/435
f 438/438 435/435 439/439
f 439/439 435/435 434/434
f 439/439 434/434 440/440
f 440/440 434/434 433/433
f 440/440 433/433 437/437
f 457/457 458/458 459/459
f 457/457 459/459 460/460
f 461/461 462/462 463/463
f 461/461 463/463 464/464
f 461/461 457/457 460/460
f 461/461 460/460 462/462
f 462/462 460/460 459/459
f 462/462 459/459 463/463
f 463/463 459/459 458/458
f 463/463 458/458 464/464
f 464/464 458/458 457/457
f 464/464 457/457 461/461
f 481/481 482/482 483/483
f 481/481 483/483 484/484
f 485/485 486/486 487/487
f 485/485 487/487 488/488
f 485/485 481/481 484/484
f 485/485 484/484 486/486
f 486/486 484/484 483/483
f 486/486 483/483 487/487
f 487/487 483/483 482/482
f 487/487 482/482 488/488
f 488/488 482/482 481/481
f 488/488 481/481 485/485
f 464/464 506/506 507/507
f 464/464 507/507 463/463
f 509/509 510/510 511/511
f 509/509 511/511 512/512
f 509/509 464/464 463/463
f 509/509 463/463 510/510
f 510/510 463/463 507/507
f 510/510 507/507 511/511
f 511/511 507/507 506/506
f 511/511 506/506 512/512
f 512/512 506/506 464/464
f 512/512 464/464 509/509
f 529/529 530/530 531/531
f 529/529 531/531 532/532
f 533/533 534/534 436/436
f 533/533 436/436 433/433
f 533/533 529/529 532/532
f 533/533 532/532 534/534
f 534/534 532/532 531/531
f 534/534 531/531 436/436
f 436/436 531/531 530/530
f 436/436 530/530 433/433
f 433/433 530/530 529/529
f 433/433 529/529 533/533
f 553/553 554/554 555/555
f 553/553 555/555 242/242
f 289/289 248/248 559/559
f 289/289 559/559 290/290
f 289/289 553/553 242/242
f 289/289 242/242 248/248
f 248/248 242/242 555/555
f 248/248 555/555 559/559
f 559/559 555/555 554/554
f 559/559 554/554 290/290
f 290/290 554/554 553/553
f 290/290 553/553 289/289
f 577/577 578/578 579/579
f 577/577 579/579 580/580
f 581/581 582/582 583/583
f 581/581 583/583 584/584
f 581/581 577/577 580/580
f 581/581 580/580 582/582
f 582/582 580/580 579/579
f 582/582 579/579 583/583
f 583/583 579/579 578/578
f 583/583 578/578 584/584
f 584/584 578/578 577/577
f 584/584 577/577 581/581
f 601/601 602/602 603/603
f 601/601 603/603 604/604
f 605/605 606/606 607/607
f 605/605 607/607 608/608
f 605/605 601/601 604/604
f 605/605 604/604 606/606
f 606/606 604/604 603/603
f 606/606 603/603 607/607
f 607/607 603/603 602/602
f 607/607 602/602 608/608
f 608/608 602/602 601/601
f 608/608 601/601 605/605
f 625/625 626/626 247/247
f 625/625 247/247 51/51
f 577/577 580/580 631/631
f 577/577 631/631 604/604
f 577/577 625/625 51/51
f 577/577 51/51 580/580
f 580/580 51/51 247/247
f 580/580 247/247 631/631
f 631/631 247/247 626/626
f 631/631 626/626 604/604
f 604/604 626/626 625/625
f 604/604 625/625 577/577
f 649/649 650/650 651/651
f 649/649 651/651 652/652
f 653/653 244/244 243/243
f 653/653 243/243 656/656
f 653/653 649/649 652/652
f 653/653 652/652 244/244
f 244/244 652/652 651/651
f 244/244 651/651 243/243
f 243/243 651/651 650/650
f 243/243 650/650 656/656
f 656/656 650/650 649/649
f 656/656 649/649 653/653
f 656/656 674/674 675/675
f 656/656 675/675 243/243
f 626/626 247/247 291/291
f 626/626 291/291 680/680
f 626/626 656/656 243/243
f 626/626 243/243 247/247
f 247/247 243/243 675/675
f 247/247 675/675 291/291
f 291/291 675/675 674/674
f 291/291 674/674 680/680
f 680/680 674/674 656/656
f 680/680 656/656 626/626
f 697/697 698/698 699/699
f 697/697 699/699 700/700
f 701/701 702/702 703/703
f 701/701 703/703 704/704
f 701/701 697/697 700/700
f 701/701 700/700 702/702
f 702/702 700/700 699/699
f 702/702 699/699 703/703
f 703/703 699/699 698/698
f 703/703 698/698 704/704
f 704/704 698/698 697/697
f 704/704 697/697 701/701
f 631/631 722/722 391/391
f 631/631 391/391 390/390
f 725/725 726/726 727/727
f 725/725 727/727 728/728
f 725/725 631/631 390/390
f 725/725 390/390 726/726
f 726/726 390/390 391/391
f 726/726 391/391 727/727
f 727/727 391/391 722/722
f 727/727 722/722 728/728
f 728/728 722/722 631/631
f 728/728 631/631 725/725
f 745/745 746/746 747/747
f 745/745 747/747 295/295
f 603/603 722/722 579/579
f 603/603 579/579 578/578
f 603/603 745/745 295/295
f 603/603 295/295 722/722
f 722/722 295/295 747/747
f 722/722 747/747 579/579
f 579/579 747/747 746/746
f 579/579 746/746 578/578
f 578/578 746/746 745/745
f 578/578 745/745 603/603
f 100/100 99/99 222/222
f 100/100 222/222 772/772
f 773/773 774/774 775/775
f 773/773 775/775 776/776
f 773/773 100/100 772/772
f 773/773 772/772 774/774
f 774/774 772/772 222/222
f 774/774 222/222 775/775
f 775/775 222/222 99/99
f 775/775 99/99 776/776
f 776/776 99/99 100/100
f 776/776 100/100 773/773
f 793/793 653/653 244/244
f 793/793 244/244 796/796
f 797/797 52/52 51/51
f 797/797 51/51 625/625
f 797/797 793/793 796/796
f 797/797 796/796 52/52
f 52/52 796/796 244/244
f 52/52 244/244 51/51
f 51/51 244/244 653/653
f 51/51 653/653 625/625
f 625/625 653/653 793/793
f 625/625 793/793 797/797
f 817/817 818/818 819/819
f 817/817 819/819 820/820
f 821/821 822/822 823/823
f 821/821 823/823 824/824
f 821/821 817/817 820/820
f 821/821 820/820 822/822
f 822/822 820/820 819/819
f 822/822 819/819 823/823
f 823/823 819/819 818/818
f 823/823 818/818 824/824
f 824/824 818/818 817/817
f 824/824 817/817 821/821
f 841/841 842/842 54/54
f 841/841 54/54 844/844
f 845/845 846/846 847/847
f 845/845 847/847 848/848
f 845/845 841/841 844/844
f 845/845 844/844 846/846
f 846/846 844/844 54/54
f 846/846 54/54 847/847
f 847/847 54/54 842/842
f 847/847 842/842 848/848
f 848/848 842/842 841/841
f 848/848 841/841 845/845
f 865/865 866/866 867/867
f 865/865 867/867 868/868
f 869/869 870/870 871/871
f 869/869 871/871 872/872
f 869/869 865/865 868/868
f 869/869 868/868 870/870
f 870/870 868/868 867/867
f 870/870 867/867 871/871
f 871/871 867/867 866/866
f 871/871 866/866 872/872
f 872/872 866/866 865/865
f 872/872 865/865 869/869
f 889/889 481/481 484/484
f 889/889 484/484 892/892
f 893/893 894/894 895/895
f 893/893 895/895 896/896
f 893/893 889/889 892/892
f 893/893 892/892 894/894
f 894/894 892/892 484/484
f 894/894 484/484 895/895
f 895/895 484/484 481/481
f 895/895 481/481 896/896
f 896/896 481/481 889/889
f 896/896 889/889 893/893
f 913/913 914/914 482/482
f 913/913 482/482 481/481
f 917/917 918/918 919/919
f 917/917 919/919 920/920
f 917/917 913/913 481/481
f 917/917 481/481 918/918
f 918/918 481/481 482/482
f 918/918 482/482 919/919
f 919/919 482/482 914/914
f 919/919 914/914 920/920
f 920/920 914/914 913/913
f 920/920 913/913 917/917
f 920/920 938/938 458/458
f 920/920 458/458 457/457
f 941/941 942/942 943/943
f 941/941 943/943 944/944
f 941/941 920/920 457/457
f 941/941 457/457 942/942
f 942/942 457/457 458/458
f 942/942 458/458 943/943
f 943/943 458/458 938/938
f 943/943 938/938 944/944
f 944/944 938/938 920/920
f 944/944 920/920 941/941
f 484/484 483/483 698/698
f 484/484 698/698 697/697
f 965/965 966/966 967/967
f 965/965 967/967 968/968
f 965/965 484/484 697/697
f 965/965 697/697 966/966
f 966/966 697/697 698/698
f 966/966 698/698 967/967
f 967/967 698/698 483/483
f 967/967 483/483 968/968
f 968/968 483/483 484/484
f 968/968 484/484 965/965
f 985/985 986/986 818/818
f 985/985 818/818 817/817
f 989/989 990/990 991/991
f 989/989 991/991 992/992
f 989/989 985/985 817/817
f 989/989 817/817 990/990
f 990/990 817/817 818/818
f 990/990 818/818 991/991
f 991/991 818/818 986/986
f 991/991 986/986 992/992
f 992/992 986/986 985/985
f 992/992 985/985 989/989
f 1009/1009 989/989 122/122
f 1009/1009 122/122 121/121
f 1013/1013 1014/1014 1015/1015
f 1013/1013 1015/1015 1016/1016
f 1013/1013 1009/1009 121/121
f 1013/1013 121/121 1014/1014
f 1014/1014 121/121 122/122
f 1014/1014 122/122 1015/1015
f 1015/1015 122/122 989/989
f 1015/1015 989/989 1016/1016
f 1016/1016 989/989 1009/1009
f 1016/1016 1009/1009 1013/1013
f 820/820 819/819 1035/1035
f 820/820 1035/1035 1036/1036
f 1037/1037 1038/1038 1039/1039
f 1037/1037 1039/1039 1040/1040
f 1037/1037 820/820 1036/1036
f 1037/1037 1036/1036 1038/1038
f 1038/1038 1036/1036 1035/1035
f 1038/1038 1035/1035 1039/1039
f 1039/1039 1035/1035 819/819
f 1039/1039 819/819 1040/1040
f 1040/1040 819/819 820/820
f 1040/1040 820/820 1037/1037
f 220/220 219/219 1038/1038
f 220/220 1038/1038 1060/1060
f 1061/1061 1062/1062 1063/1063
f 1061/1061 1063/1063 1064/1064
f 1061/1061 220/220 1060/1060
f 1061/1061 1060/1060 1062/1062
f 1062/1062 1060/1060 1038/1038
f 1062/1062 1038/1038 1063/1063
f 1063/1063 1038/1038 219/219
f 1063/1063 219/219 1064/1064
f 1064/1064 219/219 220/220
f 1064/1064 220/220 1061/1061
f 700/700 699/699 1083/1083
f 700/700 1083/1083 1084/1084
f 1085/1085 1086/1086 1087/1087
f 1085/1085 1087/1087 1088/1088
f 1085/1085 700/700 1084/1084
f 1085/1085 1084/1084 1086/1086
f 1086/1086 1084/1084 1083/1083
f 1086/1086 1083/1083 1087/1087
f 1087/1087 1083/1083 699/699
f 1087/1087 699/699 1088/1088
f 1088/1088 699/699 700/700
f 1088/1088 700/700 1085/1085
f 460/460 459/459 1107/1107
f 460/460 1107/1107 1087/1087
f 1109/1109 1110/1110 1111/1111
f 1109/1109 1111/1111 1112/1112
f 1109/1109 460/460 1087/1087
f 1109/1109 1087/1087 1110/1110
f 1110/1110 1087/1087 1107/1107
f 1110/1110 1107/1107 1111/1111
f 1111/1111 1107/1107 459/459
f 1111/1111 459/459 1112/1112
f 1112/1112 459/459 460/460
f 1112/1112 460/460 1109/1109
f 818/818 697/697 700/700
f 818/818 700/700 819/819
f 1133/1133 1134/1134 1135/1135
f 1133/1133 1135/1135 1136/1136
f 1133/1133 818/818 819/819
f 1133/1133 819/819 1134/1134
f 1134/1134 819/819 700/700
f 1134/1134 700/700 1135/1135
f 1135/1135 700/700 697/697
f 1135/1135 697/697 1136/1136
f 1136/1136 697/697 818/818
f 1136/1136 818/818 1133/1133
